<?xml version="1.0" encoding="utf-8"?>
<!-- Generator: Adobe Illustrator 23.0.0, SVG Export Plug-In . SVG Version: 6.00 Build 0)  -->
<svg version="1.1" id="Calque_1" xmlns="http://www.w3.org/2000/svg" xmlns:xlink="http://www.w3.org/1999/xlink" x="0px" y="0px"
	 viewBox="0 0 178.6 61.6" style="enable-background:new 0 0 178.6 61.6;" xml:space="preserve">
<style type="text/css">
	.st0{display:none;fill:#000011;}
	.st1{fill:#F18477;}
	.st2{fill:#AF6060;}
	.st3{fill:#352935;}
	.st4{fill:#000011;}
	.st5{fill:url(#SVGID_1_);}
	.st6{fill:url(#SVGID_2_);}
	.st7{fill:url(#SVGID_3_);}
	.st8{fill:url(#SVGID_4_);}
	.st9{fill:url(#SVGID_5_);}
	.st10{fill:url(#SVGID_6_);}
	.st11{fill:#F18477;stroke:#F18477;stroke-width:6;stroke-miterlimit:10;}
	.st12{fill:none;stroke:#F18477;stroke-width:6;stroke-miterlimit:10;}
	.st13{fill:#542C2C;}
	.st14{fill:url(#SVGID_7_);}
	.st15{fill:url(#SVGID_8_);}
	.st16{fill:url(#SVGID_9_);}
	.st17{fill:url(#SVGID_10_);}
	.st18{fill:url(#SVGID_11_);}
</style>
<linearGradient id="SVGID_1_" gradientUnits="userSpaceOnUse" x1="87.4787" y1="60.4445" x2="87.4787" y2="5.4837">
	<stop  offset="0" style="stop-color:#FBD4CF"/>
	<stop  offset="8.858854e-02" style="stop-color:#F9C3BA"/>
	<stop  offset="0.2352" style="stop-color:#F6ABA0"/>
	<stop  offset="0.3914" style="stop-color:#F39A8D"/>
	<stop  offset="0.5596" style="stop-color:#F28E81"/>
	<stop  offset="0.7483" style="stop-color:#F1877A"/>
	<stop  offset="1" style="stop-color:#F18477"/>
</linearGradient>
<path class="st5" d="M164.8,60.4H10.2c-4.2,0-7.7-3.5-7.7-7.7V23.3V13.2c0-4.2,3.5-7.7,7.7-7.7h154.6c4.2,0,7.7,3.5,7.7,7.7v39.5
	C172.5,57,169,60.4,164.8,60.4z"/>
<path class="st1" d="M3,18.5l-2.3-4.9c0,0-1.4-7.7,3.1-8.8s12.1-3.1,22-1.6S48.6,5,60.3,3.3s23.4-2.4,30.5-2.8s6.3-0.9,23.7,0
	s18.6,1.4,27.4,1.3s14.9-1.6,20.3-1s10.3,4,11,6.6c0.7,2.6,3.4,4.9,1.7,7.6s-2,0.1-6.6,0.1c-4.6,0-8.1,1.8-12.8,3.6
	s-4.2,2.2-15.3,1.2c-6.7-0.6-15.5-7.3-22.3-5.7c-6.7,1.6,1.9,6.1-17,5.6s-21.1,0.4-28.7-1.1s-8.9,0.4-15.1,1.4
	c-6.3,1-11,5.4-17.9,2.1s-26.4-7.9-28.9-4.4S3,18.5,3,18.5z"/>
<path class="st3" d="M3,19.5l-1.2-4.6c0,0-1.4-7.7,3.1-8.8s12.1-3.1,22-1.6s22.8,1.8,34.5,0.1s23.4-2.4,30.5-2.8s6.3-0.9,23.7,0
	s18.6,1.4,27.4,1.3s14.9-1.6,20.3-1s10.3,4,11,6.6c0.7,2.6,3.4,4.9,1.7,7.6c-1.7,2.7-2,0.1-6.6,0.1s-8.1,1.8-12.8,3.6
	c-4.7,1.9-4.2,2.2-15.3,1.2c-6.7-0.6-15.5-7.3-22.3-5.7c-6.7,1.6,1.9,6.1-17,5.6S80.8,21.5,73.2,20c-7.6-1.6-8.9,0.4-15.1,1.4
	s-11,5.4-17.9,2.1s-26.4-7.9-28.9-4.4S3,19.5,3,19.5z"/>
</svg>
