<?xml version="1.0" encoding="utf-8"?>
<!-- Generator: Adobe Illustrator 23.0.0, SVG Export Plug-In . SVG Version: 6.00 Build 0)  -->
<svg version="1.1" id="Calque_1" xmlns="http://www.w3.org/2000/svg" xmlns:xlink="http://www.w3.org/1999/xlink" x="0px" y="0px"
	 viewBox="0 0 175.5 62.1" style="enable-background:new 0 0 175.5 62.1;" xml:space="preserve">
<style type="text/css">
	.st0{display:none;fill:#000011;}
	.st1{fill:#F18477;}
	.st2{fill:#AF6060;}
	.st3{fill:#352935;}
	.st4{fill:#000011;}
	.st5{fill:url(#SVGID_1_);}
	.st6{fill:url(#SVGID_2_);}
	.st7{fill:url(#SVGID_3_);}
	.st8{fill:url(#SVGID_4_);}
	.st9{fill:url(#SVGID_5_);}
	.st10{fill:url(#SVGID_6_);}
	.st11{fill:#F18477;stroke:#F18477;stroke-width:6;stroke-miterlimit:10;}
	.st12{fill:none;stroke:#F18477;stroke-width:6;stroke-miterlimit:10;}
	.st13{fill:#542C2C;}
	.st14{fill:url(#SVGID_7_);}
	.st15{fill:url(#SVGID_8_);}
	.st16{fill:url(#SVGID_9_);}
	.st17{fill:url(#SVGID_10_);}
	.st18{fill:url(#SVGID_11_);}
</style>
<path class="st3" d="M164.3,62.1H9.7c-4.2,0-7.7-3.5-7.7-7.7V25V14.8c0-4.2,3.5-7.7,7.7-7.7h154.6c4.2,0,7.7,3.5,7.7,7.7v39.5
	C172,58.6,168.5,62.1,164.3,62.1z"/>
<linearGradient id="SVGID_1_" gradientUnits="userSpaceOnUse" x1="-0.5109" y1="11.701" x2="174.4465" y2="11.701">
	<stop  offset="0" style="stop-color:#FBD1BB"/>
	<stop  offset="8.022803e-02" style="stop-color:#FAC8B6"/>
	<stop  offset="0.2672" style="stop-color:#F9B7AC"/>
	<stop  offset="0.4697" style="stop-color:#F8AAA5"/>
	<stop  offset="0.6969" style="stop-color:#F7A3A1"/>
	<stop  offset="1" style="stop-color:#F7A1A0"/>
</linearGradient>
<path class="st5" d="M2,18.5l-2.3-4.9c0,0-1.4-7.7,3.1-8.8s12.1-3.1,22-1.6S47.5,5,59.3,3.3s23.4-2.4,30.5-2.8s6.3-0.9,23.7,0
	s18.6,1.4,27.4,1.3c8.9-0.1,14.9-1.6,20.3-1c5.4,0.6,10.3,4,11,6.6c0.7,2.6,3.4,4.9,1.7,7.6s-2,0.1-6.6,0.1s-8.1,1.8-12.8,3.6
	c-4.7,1.9-4.2,2.2-15.3,1.2c-6.7-0.6-15.5-7.3-22.3-5.7c-6.7,1.6,1.9,6.1-17,5.6s-21.1,0.4-28.7-1.1s-8.9,0.4-15.1,1.4
	c-6.3,1-11,5.4-17.9,2.1s-26.4-7.9-28.9-4.4S2,18.5,2,18.5z"/>
<path class="st1" d="M2,19.8l-1.2-4.6c0,0-1.4-7.7,3.1-8.8s12.1-3.1,22-1.6s22.8,1.8,34.5,0.1s23.4-2.4,30.5-2.8s6.3-0.9,23.7,0
	s18.6,1.4,27.4,1.3c8.9-0.1,14.9-1.6,20.3-1s10.3,4,11,6.6s3.4,4.9,1.7,7.6c-1.7,2.7-2,0.1-6.6,0.1c-4.6,0-8.1,1.8-12.8,3.6
	s-4.2,2.2-15.3,1.2c-6.7-0.6-15.5-7.3-22.3-5.7c-6.7,1.6,1.9,6.1-17,5.6c-18.9-0.6-21.1,0.4-28.7-1.1c-7.6-1.6-8.9,0.4-15.1,1.4
	c-6.3,1-11,5.4-17.9,2.1S12.8,16,10.3,19.4S2,19.8,2,19.8z"/>
</svg>
