<?xml version="1.0" encoding="utf-8"?>
<!-- Generator: Adobe Illustrator 22.0.1, SVG Export Plug-In . SVG Version: 6.00 Build 0)  -->
<svg version="1.1" id="Calque_1" xmlns="http://www.w3.org/2000/svg" xmlns:xlink="http://www.w3.org/1999/xlink" x="0px" y="0px"
	 viewBox="0 0 1733.8 627.2" style="enable-background:new 0 0 1733.8 627.2;" xml:space="preserve">
<style type="text/css">
	.st0{fill:#FFFFFF;}
	.st1{fill:url(#SVGID_1_);stroke:#0C0D16;stroke-miterlimit:10;}
	.st2{opacity:0.7;fill:url(#SVGID_2_);}
	.st3{opacity:0.1;fill:#608291;}
	.st4{opacity:0.15;fill:url(#SVGID_3_);}
	.st5{opacity:0.8;fill:url(#SVGID_4_);}
	.st6{opacity:0.8;fill:#1E2635;}
	.st7{opacity:0.8;fill:url(#SVGID_5_);}
	.st8{fill:url(#SVGID_6_);}
	.st9{fill:#1E2635;}
	.st10{opacity:0.8;fill:url(#SVGID_7_);}
	.st11{fill:url(#SVGID_8_);}
	.st12{fill:url(#SVGID_9_);}
	.st13{fill:url(#SVGID_10_);}
	.st14{fill:url(#SVGID_11_);}
	.st15{fill:url(#SVGID_12_);stroke:#0C0D16;stroke-miterlimit:10;}
	.st16{opacity:0.7;fill:url(#SVGID_13_);}
	.st17{opacity:0.15;fill:url(#SVGID_14_);}
	.st18{opacity:0.8;fill:url(#SVGID_15_);}
	.st19{opacity:0.8;fill:url(#SVGID_16_);}
	.st20{fill:url(#SVGID_17_);}
	.st21{fill:url(#SVGID_18_);}
	.st22{opacity:0.8;fill:url(#SVGID_19_);}
	.st23{fill:url(#SVGID_20_);}
	.st24{fill:url(#SVGID_21_);}
	.st25{fill:url(#SVGID_22_);stroke:#0C0D16;stroke-miterlimit:10;}
	.st26{opacity:0.7;fill:url(#SVGID_23_);}
	.st27{opacity:0.15;fill:url(#SVGID_24_);}
	.st28{opacity:0.4;fill:url(#SVGID_25_);}
	.st29{opacity:0.8;fill:url(#SVGID_26_);}
	.st30{opacity:0.8;fill:url(#SVGID_27_);}
	.st31{fill:url(#SVGID_28_);}
	.st32{opacity:0.8;fill:url(#SVGID_29_);}
	.st33{opacity:0.6;fill:url(#SVGID_30_);}
	.st34{fill:url(#SVGID_31_);}
	.st35{opacity:0.8;fill:url(#SVGID_32_);}
	.st36{fill:url(#SVGID_33_);}
	.st37{opacity:0.8;fill:url(#SVGID_34_);}
	.st38{fill:url(#SVGID_35_);}
	.st39{opacity:0.8;fill:url(#SVGID_36_);}
	.st40{opacity:0.6;fill:url(#SVGID_37_);}
	.st41{fill:url(#SVGID_38_);}
	.st42{fill:url(#SVGID_39_);}
	.st43{fill:url(#SVGID_40_);}
	.st44{fill:#151325;}
	.st45{fill:#201B3D;}
	.st46{fill:url(#SVGID_41_);stroke:#0C0D16;stroke-miterlimit:10;}
	.st47{opacity:0.7;fill:url(#SVGID_42_);}
	.st48{opacity:0.15;fill:url(#SVGID_43_);}
	.st49{opacity:0.8;fill:url(#SVGID_44_);}
	.st50{opacity:0.8;fill:url(#SVGID_45_);}
	.st51{fill:url(#SVGID_46_);}
	.st52{fill:url(#SVGID_47_);}
	.st53{opacity:0.8;fill:url(#SVGID_48_);}
	.st54{fill:url(#SVGID_49_);}
	.st55{fill:url(#SVGID_50_);}
	.st56{fill:url(#SVGID_51_);}
	.st57{fill:url(#SVGID_52_);stroke:#0C0D16;stroke-miterlimit:10;}
	.st58{opacity:0.7;fill:url(#SVGID_53_);}
	.st59{opacity:0.15;fill:url(#SVGID_54_);}
	.st60{opacity:0.8;fill:url(#SVGID_55_);}
	.st61{opacity:0.8;fill:url(#SVGID_56_);}
	.st62{fill:url(#SVGID_57_);}
	.st63{opacity:0.8;fill:url(#SVGID_58_);}
	.st64{fill:url(#SVGID_59_);}
	.st65{fill:url(#SVGID_60_);}
	.st66{fill:url(#SVGID_61_);}
	.st67{fill:url(#SVGID_62_);}
	.st68{opacity:0.8;fill:url(#SVGID_63_);}
	.st69{opacity:0.8;fill:url(#SVGID_64_);}
	.st70{fill:url(#SVGID_65_);}
	.st71{fill:url(#SVGID_66_);}
	.st72{fill:url(#SVGID_67_);}
	.st73{fill:url(#SVGID_68_);}
	.st74{opacity:0.8;fill:url(#SVGID_69_);}
	.st75{opacity:0.8;fill:url(#SVGID_70_);}
	.st76{fill:url(#SVGID_71_);}
	.st77{fill:url(#SVGID_72_);}
	.st78{fill:url(#SVGID_73_);}
	.st79{opacity:0.8;fill:url(#SVGID_74_);}
	.st80{opacity:0.8;fill:url(#SVGID_75_);}
	.st81{fill:url(#SVGID_76_);}
	.st82{fill:url(#SVGID_77_);}
	.st83{fill:url(#SVGID_78_);}
	.st84{fill:#0C0D16;stroke:#0C0D16;stroke-miterlimit:10;}
	.st85{fill:#26284A;}
	.st86{fill:url(#SVGID_79_);}
	.st87{fill:url(#SVGID_80_);}
	.st88{fill:url(#SVGID_81_);}
	.st89{fill:url(#SVGID_82_);}
	.st90{fill:url(#SVGID_83_);}
	.st91{fill:url(#SVGID_84_);}
	.st92{fill:url(#SVGID_85_);}
	.st93{fill:url(#SVGID_86_);}
	.st94{fill:url(#SVGID_87_);}
	.st95{fill:url(#SVGID_88_);}
	.st96{fill:url(#SVGID_89_);}
	.st97{fill:url(#SVGID_90_);}
	.st98{fill:url(#SVGID_91_);}
	.st99{fill:url(#SVGID_92_);}
	.st100{fill:url(#SVGID_93_);}
	.st101{fill:#9BD5E4;}
	.st102{fill:#ABDCEB;}
	.st103{opacity:0.2;fill:#2B2C4D;}
	.st104{opacity:0.3;fill:url(#SVGID_94_);}
	.st105{opacity:0.3;fill:url(#SVGID_95_);}
	.st106{fill:#1E1212;}
	.st107{fill:#1E1212;stroke:#0C0D16;stroke-miterlimit:10;}
	.st108{opacity:0.3;fill:url(#SVGID_96_);stroke:#0C0D16;stroke-miterlimit:10;}
	.st109{opacity:5.000000e-02;fill:url(#SVGID_97_);stroke:#0C0D16;stroke-miterlimit:10;}
	.st110{fill:url(#SVGID_98_);stroke:#0C0D16;stroke-miterlimit:10;}
	.st111{fill:#3A556E;}
	.st112{opacity:0.3;fill:url(#SVGID_99_);}
	.st113{opacity:0.3;fill:url(#SVGID_100_);}
	.st114{fill:url(#SVGID_101_);}
	.st115{fill:url(#SVGID_102_);}
	.st116{fill:url(#SVGID_103_);}
	.st117{fill:url(#SVGID_104_);}
	.st118{fill:url(#SVGID_105_);}
	.st119{fill:url(#SVGID_106_);}
	.st120{fill:url(#SVGID_107_);}
	.st121{fill:url(#SVGID_108_);}
	.st122{fill:url(#SVGID_109_);}
	.st123{fill:url(#SVGID_110_);}
	.st124{fill:url(#SVGID_111_);}
	.st125{fill:url(#SVGID_112_);}
	.st126{fill:url(#SVGID_113_);}
	.st127{fill:url(#SVGID_114_);}
	.st128{fill:url(#SVGID_115_);}
	.st129{fill:url(#SVGID_116_);stroke:#0C0D16;stroke-miterlimit:10;}
	.st130{opacity:0.3;fill:url(#SVGID_117_);stroke:#0C0D16;stroke-miterlimit:10;}
	.st131{opacity:5.000000e-02;fill:url(#SVGID_118_);stroke:#0C0D16;stroke-miterlimit:10;}
	.st132{fill:url(#SVGID_119_);stroke:#0C0D16;stroke-miterlimit:10;}
	.st133{opacity:0.7;fill:url(#SVGID_120_);}
	.st134{opacity:0.15;fill:url(#SVGID_121_);}
	.st135{fill:url(#SVGID_122_);stroke:#0C0D16;stroke-miterlimit:10;}
	.st136{opacity:0.7;fill:url(#SVGID_123_);}
	.st137{opacity:0.15;fill:url(#SVGID_124_);}
	.st138{fill:url(#SVGID_125_);stroke:#0C0D16;stroke-miterlimit:10;}
	.st139{opacity:0.7;fill:url(#SVGID_126_);}
	.st140{opacity:0.15;fill:url(#SVGID_127_);}
</style>
<g>
	<g>
		<rect x="756.9" y="514.8" class="st84" width="0.5" height="35.6"/>
		<polygon class="st84" points="757.1,507.8 751.1,522.9 763.1,522.9 		"/>
		<polygon class="st84" points="757.1,513 748.9,534 765.4,534 		"/>
		<polygon class="st84" points="757.1,520.2 746.3,547.6 767.9,547.6 		"/>
	</g>
	<g>
		<rect x="778.7" y="510.3" class="st84" width="0.5" height="38.2"/>
		<polygon class="st84" points="779,504.2 773,517.5 784.9,517.5 		"/>
		<polygon class="st84" points="779,508.8 770.7,527.3 787.2,527.3 		"/>
		<polygon class="st84" points="779,515.1 768.2,539.3 789.8,539.3 		"/>
		<polygon class="st84" points="778.7,522 767.9,546.2 789.5,546.2 		"/>
	</g>
	<g>
		<rect x="91.6" y="504.5" class="st84" width="1.1" height="53.4"/>
		<polygon class="st84" points="92.2,494.1 79.4,516.7 104.9,516.7 		"/>
		<polygon class="st84" points="92.2,501.9 74.5,533.3 109.8,533.3 		"/>
		<polygon class="st84" points="92.2,512.6 69.1,553.7 115.2,553.7 		"/>
	</g>
	<g>
		<rect x="62" y="438.6" class="st84" width="1.4" height="121.9"/>
		<polygon class="st84" points="62.7,414.9 46.5,466.6 79,466.6 		"/>
		<polygon class="st84" points="62.7,432.7 40.2,504.5 85.2,504.5 		"/>
		<polygon class="st84" points="62.7,457.2 33.3,551 92.2,551 		"/>
	</g>
	<path class="st84" d="M0.5,545.7l252.2-37.5l64,17.9l0.6,5.7l10.2-2.7l98.9,27.7c16.8-5.1,35.9-13.3,55.8-21.8
		c1.6-0.7,2.1,5.7,3.7,5.1c1.3-0.6,3.6-8.2,4.9-8.8c52.7-22.7,108.5-45.5,137-21.1c40.8,35,233.2,46.6,233.2,46.6v69.1H7.7
		L0.5,545.7z"/>
	<path class="st84" d="M1285.3,459.4c0.3-0.1,0.5-0.3,0.6-0.5c0.9-1.2,5-5.1,4.7-5.4c-0.1-0.1-1,0.5-1.8,1.1c-1,0.7-1.6,1.4-1.7,1.4
		c0,0,4.2-4,3.9-4.4c-0.2-0.2-1.6,0.5-2.8,1.5c-1.4,1.2-1.9,2.4-2,2.4c-0.2-0.1,5.2-10,4.7-10.3c-0.2-0.1-1.9,2.2-2.6,3.3
		c-1.6,2.3-2.2,3.5-2.5,3.4c-0.6-0.2,0.2-3.9,0-3.9c-0.1,0-0.5,1.3-0.8,2.7c-0.3,1.7-0.4,2.7-0.5,2.7c-0.2,0,0.3-10.4-0.1-10.5
		c-0.3,0-0.8,5.5-1,5.5c-0.1,0,0.2-2.1-0.1-5c-0.2-2.6-0.8-5-1-4.9c-0.1,0-0.1,0.7,0,5.2c0.1,3.5,0.1,5.2,0,5.2s-0.2-1.5-0.7-3.8
		c-0.3-1.6-0.9-3.7-1.1-3.7c-0.2,0,0.1,3.3,0.6,6.3c0.1,0.8,0.4,2.2,0.3,2.2s-0.4-1.6-1.6-3.4c-0.1-0.2-1-1.7-1.2-1.6
		c-0.5,0.2,2.7,8.2,2.6,8.3c0,0-0.4-0.8-0.9-1.9c-1.1-2.1-2.5-4.3-2.7-4.2c-0.4,0.2,3.1,7.7,3,7.8c-0.2,0.1-3.2-6.4-3.5-6.2
		s2.6,7,2.2,7.2c-0.3,0.1-2.5-4.3-2.8-4.3c-0.2,0.1,0.4,2.1,1.5,3.9c0.3,0.6,0.7,1,0.6,1.1c-0.1,0.1-2.8-3.6-3.1-3.5
		c-0.1,0.1,0.5,1.6,1.6,2.9c0.7,0.9,1.5,1.5,1.4,1.5c0,0-0.5-0.4-1.3-0.9c-1-0.6-2.2-1-2.3-0.9c-0.1,0.2,2,0.9,4,2.9
		c0.8,0.8,1,1.1,1.6,1.2c1.2,0.2,2.1-1,3.3-0.7C1284.5,459.3,1284.8,459.6,1285.3,459.4z"/>
	<path class="st84" d="M1266.9,470.4c0.2-0.1,0.3-0.2,0.4-0.3c0.5-0.7,2.8-2.8,2.6-3c-0.1-0.1-0.6,0.3-1,0.6
		c-0.6,0.4-0.9,0.8-0.9,0.8c0,0,2.3-2.2,2.1-2.4c-0.1-0.1-0.9,0.3-1.6,0.8c-0.8,0.7-1.1,1.3-1.1,1.3c-0.1,0,2.9-5.6,2.6-5.7
		c-0.1-0.1-1.1,1.2-1.5,1.8c-0.9,1.3-1.2,2-1.4,1.9c-0.3-0.1,0.1-2.1,0-2.1c-0.1,0-0.3,0.7-0.4,1.5c-0.2,0.9-0.2,1.5-0.3,1.5
		c-0.1,0,0.1-5.8-0.1-5.8c-0.1,0-0.5,3.1-0.6,3c-0.1,0,0.1-1.2,0-2.8c-0.1-1.4-0.4-2.7-0.5-2.7c-0.1,0-0.1,0.4,0,2.9
		c0.1,1.9,0.1,2.9,0,2.9s-0.1-0.8-0.4-2.1c-0.2-0.9-0.5-2-0.6-2c-0.1,0,0,1.8,0.3,3.5c0.1,0.4,0.2,1.2,0.2,1.2s-0.2-0.9-0.9-1.9
		c-0.1-0.1-0.6-0.9-0.7-0.9c-0.3,0.1,1.5,4.6,1.4,4.6c0,0-0.2-0.5-0.5-1.1c-0.6-1.2-1.4-2.4-1.5-2.3c-0.2,0.1,1.7,4.3,1.6,4.3
		c-0.1,0-1.8-3.5-1.9-3.5c-0.2,0.1,1.4,3.9,1.2,4c-0.2,0.1-1.4-2.4-1.5-2.4c-0.1,0,0.2,1.1,0.8,2.2c0.2,0.3,0.4,0.6,0.3,0.6
		c-0.1,0-1.6-2-1.7-1.9c-0.1,0,0.3,0.9,0.9,1.6c0.4,0.5,0.8,0.8,0.8,0.9s-0.3-0.2-0.7-0.5c-0.6-0.3-1.2-0.6-1.3-0.5
		c-0.1,0.1,1.1,0.5,2.2,1.6c0.5,0.5,0.6,0.6,0.9,0.7c0.7,0.1,1.2-0.6,1.9-0.4C1266.5,470.4,1266.7,470.5,1266.9,470.4z"/>
	<path class="st84" d="M1258,476.2c0.1,0,0.1-0.1,0.2-0.2c0.3-0.3,1.5-1.5,1.4-1.6c0,0-0.3,0.2-0.5,0.3c-0.3,0.2-0.5,0.4-0.5,0.4
		s1.3-1.2,1.1-1.3c-0.1-0.1-0.5,0.2-0.8,0.4c-0.4,0.4-0.6,0.7-0.6,0.7c-0.1,0,1.5-3,1.4-3c-0.1,0-0.6,0.7-0.8,1
		c-0.5,0.7-0.6,1-0.7,1c-0.2,0,0.1-1.1,0-1.1c0,0-0.2,0.4-0.2,0.8c-0.1,0.5-0.1,0.8-0.1,0.8c-0.1,0,0.1-3.1,0-3.1
		c-0.1,0-0.2,1.6-0.3,1.6c0,0,0-0.6,0-1.5c-0.1-0.8-0.2-1.5-0.3-1.5c0,0,0,0.2,0,1.5c0,1,0,1.5,0,1.5c0,0-0.1-0.4-0.2-1.1
		c-0.1-0.5-0.3-1.1-0.3-1.1c0,0,0,1,0.2,1.9c0,0.2,0.1,0.6,0.1,0.6c0,0-0.1-0.5-0.5-1c0-0.1-0.3-0.5-0.4-0.5
		c-0.2,0.1,0.8,2.4,0.8,2.4c0,0-0.1-0.2-0.3-0.6c-0.3-0.6-0.7-1.3-0.8-1.2c-0.1,0,0.9,2.3,0.9,2.3c-0.1,0-1-1.9-1-1.8
		c-0.1,0,0.8,2.1,0.7,2.1c-0.1,0-0.8-1.3-0.8-1.3c-0.1,0,0.1,0.6,0.4,1.2c0.1,0.2,0.2,0.3,0.2,0.3c0,0-0.8-1.1-0.9-1
		c0,0,0.2,0.5,0.5,0.9c0.2,0.3,0.4,0.4,0.4,0.5s-0.2-0.1-0.4-0.3c-0.3-0.2-0.7-0.3-0.7-0.3c0,0.1,0.6,0.3,1.2,0.9
		c0.2,0.2,0.3,0.3,0.5,0.4c0.4,0.1,0.6-0.3,1-0.2C1257.8,476.2,1257.9,476.2,1258,476.2z"/>
	<path class="st84" d="M1013.5,564.8c0.3-0.1,0.6-0.4,0.8-0.6c1.1-1.4,6-6.1,5.7-6.4c-0.2-0.1-1.2,0.7-2.1,1.3c-1.2,0.9-2,1.6-2,1.6
		s5.1-4.8,4.6-5.2c-0.2-0.3-2,0.6-3.4,1.8c-1.6,1.4-2.3,2.9-2.3,2.9c-0.2-0.1,6.2-12,5.7-12.3c-0.3-0.1-2.3,2.6-3.2,3.9
		c-1.9,2.7-2.6,4.2-3,4.1c-0.7-0.2,0.3-4.6,0-4.6c-0.1,0-0.6,1.6-1,3.2c-0.4,2-0.5,3.2-0.6,3.2c-0.2,0,0.3-12.5-0.1-12.5
		c-0.3,0-1,6.6-1.2,6.6c-0.1,0,0.2-2.5-0.1-6c-0.3-3.1-0.9-5.9-1.2-5.9c-0.1,0-0.1,0.9,0,6.2c0.1,4.2,0.2,6.2,0.1,6.2
		c-0.1,0-0.2-1.8-0.8-4.5c-0.4-1.9-1.1-4.4-1.3-4.4c-0.2,0,0.1,3.9,0.7,7.5c0.2,1,0.5,2.6,0.3,2.6c-0.1,0-0.5-1.9-1.9-4.1
		c-0.2-0.3-1.2-2-1.5-1.9c-0.6,0.2,3.2,9.8,3.1,9.9c0,0-0.4-1-1.1-2.3c-1.3-2.5-3-5.1-3.2-5c-0.5,0.2,3.8,9.2,3.6,9.3
		c-0.2,0.1-3.8-7.6-4.2-7.5c-0.3,0.1,3.1,8.4,2.6,8.6c-0.4,0.1-3-5.2-3.3-5.1c-0.2,0.1,0.5,2.5,1.8,4.7c0.4,0.7,0.8,1.2,0.7,1.3
		c-0.1,0.1-3.4-4.3-3.6-4.1c-0.2,0.1,0.6,1.9,1.9,3.5c0.9,1,1.8,1.8,1.7,1.8c-0.1,0.1-0.7-0.5-1.6-1.1c-1.2-0.7-2.7-1.2-2.8-1
		c-0.1,0.2,2.3,1,4.7,3.5c1,1,1.2,1.4,1.9,1.5c1.5,0.2,2.5-1.3,4-0.8C1012.6,564.7,1013,564.9,1013.5,564.8z"/>
	<path class="st84" d="M1023,564.8c0.3-0.1,0.6-0.4,0.8-0.6c1.1-1.4,6-6.1,5.7-6.4c-0.2-0.1-1.2,0.7-2.1,1.3c-1.2,0.9-2,1.6-2,1.6
		s5.1-4.8,4.6-5.2c-0.2-0.3-2,0.6-3.4,1.8c-1.6,1.4-2.3,2.9-2.3,2.9c-0.2-0.1,6.2-12,5.7-12.3c-0.3-0.1-2.3,2.6-3.2,3.9
		c-1.9,2.7-2.6,4.2-3,4.1c-0.7-0.2,0.3-4.6,0-4.6c-0.1,0-0.6,1.6-1,3.2c-0.4,2-0.5,3.2-0.6,3.2c-0.2,0,0.3-12.5-0.1-12.5
		c-0.3,0-1,6.6-1.2,6.6c-0.1,0,0.2-2.5-0.1-6c-0.3-3.1-0.9-5.9-1.2-5.9c-0.1,0-0.1,0.9,0,6.2c0.1,4.2,0.2,6.2,0.1,6.2
		c-0.1,0-0.2-1.8-0.8-4.5c-0.4-1.9-1.1-4.4-1.3-4.4c-0.2,0,0.1,3.9,0.7,7.5c0.2,1,0.5,2.6,0.3,2.6c-0.1,0-0.5-1.9-1.9-4.1
		c-0.2-0.3-1.2-2-1.5-1.9c-0.6,0.2,3.2,9.8,3.1,9.9c0,0-0.4-1-1.1-2.3c-1.3-2.5-3-5.1-3.2-5c-0.5,0.2,3.8,9.2,3.6,9.3
		c-0.2,0.1-3.8-7.6-4.2-7.5s3.1,8.4,2.6,8.6c-0.4,0.1-3-5.2-3.3-5.1c-0.2,0.1,0.5,2.5,1.8,4.7c0.4,0.7,0.8,1.2,0.7,1.3
		c-0.1,0.1-3.4-4.3-3.6-4.1c-0.2,0.1,0.6,1.9,1.9,3.5c0.9,1,1.8,1.8,1.7,1.8c-0.1,0.1-0.7-0.5-1.6-1.1c-1.2-0.7-2.7-1.2-2.8-1
		c-0.1,0.2,2.3,1,4.7,3.5c1,1,1.2,1.4,1.9,1.5c1.5,0.2,2.5-1.3,4-0.8C1022.1,564.7,1022.5,564.9,1023,564.8z"/>
	<path class="st84" d="M1033.3,568.3c0.3-0.1,0.6-0.4,0.8-0.6c1.1-1.4,6-6.1,5.7-6.4c-0.2-0.1-1.2,0.7-2.1,1.3c-1.2,0.9-2,1.6-2,1.6
		s5.1-4.8,4.6-5.2c-0.2-0.3-2,0.6-3.4,1.8c-1.6,1.4-2.3,2.9-2.3,2.9c-0.2-0.1,6.2-12,5.7-12.3c-0.3-0.1-2.3,2.6-3.2,3.9
		c-1.9,2.7-2.6,4.2-3,4.1c-0.7-0.2,0.3-4.6,0-4.6c-0.1,0-0.6,1.6-1,3.2c-0.4,2-0.5,3.2-0.6,3.2c-0.2,0,0.3-12.5-0.1-12.5
		c-0.3,0-1,6.6-1.2,6.6c-0.1,0,0.2-2.5-0.1-6c-0.3-3.1-0.9-5.9-1.2-5.9c-0.1,0-0.1,0.9,0,6.2c0.1,4.2,0.2,6.2,0.1,6.2
		c-0.1,0-0.2-1.8-0.8-4.5c-0.4-1.9-1.1-4.4-1.3-4.4c-0.2,0,0.1,3.9,0.7,7.5c0.2,1,0.5,2.6,0.3,2.6s-0.5-1.9-1.9-4.1
		c-0.2-0.3-1.2-2-1.5-1.9c-0.6,0.2,3.2,9.8,3.1,9.9c0,0-0.4-1-1.1-2.3c-1.3-2.5-3-5.1-3.2-5c-0.5,0.2,3.8,9.2,3.6,9.3
		c-0.2,0.1-3.8-7.6-4.2-7.5c-0.3,0.1,3.1,8.4,2.6,8.6c-0.4,0.1-3-5.2-3.3-5.1c-0.2,0.1,0.5,2.5,1.8,4.7c0.4,0.7,0.8,1.2,0.7,1.3
		c-0.1,0.1-3.4-4.3-3.6-4.1c-0.2,0.1,0.6,1.9,1.9,3.5c0.9,1,1.8,1.8,1.7,1.8c-0.1,0.1-0.7-0.5-1.6-1.1c-1.2-0.7-2.7-1.2-2.8-1
		c-0.1,0.2,2.3,1,4.7,3.5c1,1,1.2,1.4,1.9,1.5c1.5,0.2,2.5-1.3,4-0.8C1032.4,568.2,1032.9,568.5,1033.3,568.3z"/>
	<path class="st84" d="M1055.6,568.3c0.3-0.1,0.6-0.4,0.8-0.6c1.1-1.4,6-6.1,5.7-6.4c-0.2-0.1-1.2,0.7-2.1,1.3c-1.2,0.9-2,1.6-2,1.6
		s5.1-4.8,4.6-5.2c-0.2-0.3-2,0.6-3.4,1.8c-1.6,1.4-2.3,2.9-2.3,2.9c-0.2-0.1,6.2-12,5.7-12.3c-0.3-0.1-2.3,2.6-3.2,3.9
		c-1.9,2.7-2.6,4.2-3,4.1c-0.7-0.2,0.3-4.6,0-4.6c-0.1,0-0.6,1.6-1,3.2c-0.4,2-0.5,3.2-0.6,3.2c-0.2,0,0.3-12.5-0.1-12.5
		c-0.3,0-1,6.6-1.2,6.6c-0.1,0,0.2-2.5-0.1-6c-0.3-3.1-0.9-5.9-1.2-5.9c-0.1,0-0.1,0.9,0,6.2c0.1,4.2,0.2,6.2,0.1,6.2
		c-0.1,0-0.2-1.8-0.8-4.5c-0.4-1.9-1.1-4.4-1.3-4.4c-0.2,0,0.1,3.9,0.7,7.5c0.2,1,0.5,2.6,0.3,2.6s-0.5-1.9-1.9-4.1
		c-0.2-0.3-1.2-2-1.5-1.9c-0.6,0.2,3.2,9.8,3.1,9.9c0,0-0.4-1-1.1-2.3c-1.3-2.5-3-5.1-3.2-5c-0.5,0.2,3.8,9.2,3.6,9.3
		c-0.2,0.1-3.8-7.6-4.2-7.5c-0.3,0.1,3.1,8.4,2.6,8.6c-0.4,0.1-3-5.2-3.3-5.1c-0.2,0.1,0.5,2.5,1.8,4.7c0.4,0.7,0.8,1.2,0.7,1.3
		c-0.1,0.1-3.4-4.3-3.6-4.1c-0.2,0.1,0.6,1.9,1.9,3.5c0.9,1,1.8,1.8,1.7,1.8s-0.7-0.5-1.6-1.1c-1.2-0.7-2.7-1.2-2.8-1
		c-0.1,0.2,2.3,1,4.7,3.5c1,1,1.2,1.4,1.9,1.5c1.5,0.2,2.5-1.3,4-0.8C1054.7,568.2,1055.1,568.5,1055.6,568.3z"/>
	<path class="st84" d="M1065.1,568.3c0.3-0.1,0.6-0.4,0.8-0.6c1.1-1.4,6-6.1,5.7-6.4c-0.2-0.1-1.2,0.7-2.1,1.3c-1.2,0.9-2,1.6-2,1.6
		s5.1-4.8,4.6-5.2c-0.2-0.3-2,0.6-3.4,1.8c-1.6,1.4-2.3,2.9-2.3,2.9c-0.2-0.1,6.2-12,5.7-12.3c-0.3-0.1-2.3,2.6-3.2,3.9
		c-1.9,2.7-2.6,4.2-3,4.1c-0.7-0.2,0.3-4.6,0-4.6c-0.1,0-0.6,1.6-1,3.2c-0.4,2-0.5,3.2-0.6,3.2c-0.2,0,0.3-12.5-0.1-12.5
		c-0.3,0-1,6.6-1.2,6.6c-0.1,0,0.2-2.5-0.1-6c-0.3-3.1-0.9-5.9-1.2-5.9c-0.1,0-0.1,0.9,0,6.2c0.1,4.2,0.2,6.2,0.1,6.2
		s-0.2-1.8-0.8-4.5c-0.4-1.9-1.1-4.4-1.3-4.4c-0.2,0,0.1,3.9,0.7,7.5c0.2,1,0.5,2.6,0.3,2.6c-0.1,0-0.5-1.9-1.9-4.1
		c-0.2-0.3-1.2-2-1.5-1.9c-0.6,0.2,3.2,9.8,3.1,9.9c0,0-0.4-1-1.1-2.3c-1.3-2.5-3-5.1-3.2-5c-0.5,0.2,3.8,9.2,3.6,9.3
		c-0.2,0.1-3.8-7.6-4.2-7.5c-0.3,0.1,3.1,8.4,2.6,8.6c-0.4,0.1-3-5.2-3.3-5.1c-0.2,0.1,0.5,2.5,1.8,4.7c0.4,0.7,0.8,1.2,0.7,1.3
		c-0.1,0.1-3.4-4.3-3.6-4.1c-0.2,0.1,0.6,1.9,1.9,3.5c0.9,1,1.8,1.8,1.7,1.8c-0.1,0.1-0.7-0.5-1.6-1.1c-1.2-0.7-2.7-1.2-2.8-1
		c-0.1,0.2,2.3,1,4.7,3.5c1,1,1.2,1.4,1.9,1.5c1.5,0.2,2.5-1.3,4-0.8C1064.2,568.2,1064.6,568.5,1065.1,568.3z"/>
	<path class="st84" d="M1119.5,560.7c0.2-0.1,0.4-0.3,0.6-0.5c0.8-1.1,4.4-4.8,4.1-5.1c-0.1-0.1-0.9,0.5-1.5,1
		c-0.9,0.7-1.4,1.3-1.4,1.3c0,0,3.7-3.8,3.4-4.1c-0.2-0.2-1.4,0.5-2.4,1.4c-1.2,1.1-1.6,2.3-1.7,2.3c-0.1-0.1,4.5-9.5,4.1-9.7
		c-0.2-0.1-1.6,2.1-2.3,3.1c-1.4,2.1-1.9,3.4-2.2,3.3c-0.5-0.2,0.2-3.7,0-3.7c-0.1,0-0.4,1.2-0.7,2.5c-0.3,1.6-0.3,2.5-0.4,2.5
		c-0.2,0,0.2-9.9-0.1-9.9c-0.2,0-0.7,5.2-0.9,5.2c-0.1,0,0.1-2-0.1-4.8c-0.2-2.4-0.7-4.7-0.8-4.7c-0.1,0-0.1,0.7,0,4.9
		c0.1,3.3,0.1,4.9,0,4.9s-0.2-1.4-0.6-3.6c-0.3-1.5-0.8-3.5-0.9-3.5c-0.1,0,0.1,3.1,0.5,6c0.1,0.8,0.3,2.1,0.3,2.1s-0.4-1.5-1.3-3.2
		c-0.1-0.2-0.9-1.6-1.1-1.5c-0.4,0.2,2.3,7.8,2.2,7.8c0,0-0.3-0.8-0.8-1.8c-0.9-2-2.2-4-2.3-4c-0.3,0.2,2.7,7.3,2.6,7.3
		s-2.8-6-3-5.9c-0.2,0.1,2.3,6.6,1.9,6.8c-0.3,0.1-2.2-4.1-2.4-4c-0.2,0.1,0.3,1.9,1.3,3.7c0.3,0.5,0.6,1,0.5,1
		c-0.1,0.1-2.4-3.4-2.6-3.3c-0.1,0.1,0.4,1.5,1.4,2.7c0.6,0.8,1.3,1.4,1.2,1.5s-0.5-0.4-1.2-0.8c-0.9-0.6-1.9-0.9-2-0.8
		c-0.1,0.2,1.7,0.8,3.4,2.7c0.7,0.8,0.9,1.1,1.4,1.2c1.1,0.2,1.8-1,2.9-0.6C1118.8,560.7,1119.1,560.9,1119.5,560.7z"/>
	<path class="st84" d="M1126.3,560.7c0.2-0.1,0.4-0.3,0.6-0.5c0.8-1.1,4.4-4.8,4.1-5.1c-0.1-0.1-0.9,0.5-1.5,1
		c-0.9,0.7-1.4,1.3-1.4,1.3c0,0,3.7-3.8,3.4-4.1c-0.2-0.2-1.4,0.5-2.4,1.4c-1.2,1.1-1.6,2.3-1.7,2.3c-0.1-0.1,4.5-9.5,4.1-9.7
		c-0.2-0.1-1.6,2.1-2.3,3.1c-1.4,2.1-1.9,3.4-2.2,3.3c-0.5-0.2,0.2-3.7,0-3.7c-0.1,0-0.4,1.2-0.7,2.5c-0.3,1.6-0.3,2.5-0.4,2.5
		c-0.2,0,0.2-9.9-0.1-9.9c-0.2,0-0.7,5.2-0.9,5.2c-0.1,0,0.1-2-0.1-4.8c-0.2-2.4-0.7-4.7-0.8-4.7c-0.1,0-0.1,0.7,0,4.9
		c0.1,3.3,0.1,4.9,0,4.9s-0.2-1.4-0.6-3.6c-0.3-1.5-0.8-3.5-0.9-3.5c-0.1,0,0.1,3.1,0.5,6c0.1,0.8,0.3,2.1,0.3,2.1s-0.4-1.5-1.3-3.2
		c-0.1-0.2-0.9-1.6-1.1-1.5c-0.4,0.2,2.3,7.8,2.2,7.8c0,0-0.3-0.8-0.8-1.8c-0.9-2-2.2-4-2.3-4c-0.3,0.2,2.7,7.3,2.6,7.3
		s-2.8-6-3-5.9s2.3,6.6,1.9,6.8c-0.3,0.1-2.2-4.1-2.4-4c-0.2,0.1,0.3,1.9,1.3,3.7c0.3,0.5,0.6,1,0.5,1c-0.1,0.1-2.4-3.4-2.6-3.3
		c-0.1,0.1,0.4,1.5,1.4,2.7c0.6,0.8,1.3,1.4,1.2,1.5s-0.5-0.4-1.2-0.8c-0.9-0.6-1.9-0.9-2-0.8c-0.1,0.2,1.7,0.8,3.4,2.7
		c0.7,0.8,0.9,1.1,1.4,1.2c1.1,0.2,1.8-1,2.9-0.6C1125.7,560.7,1126,560.9,1126.3,560.7z"/>
	<path class="st84" d="M1131.9,558.1c0.2-0.1,0.4-0.3,0.6-0.5c0.8-1.1,4.4-4.8,4.1-5.1c-0.1-0.1-0.9,0.5-1.5,1
		c-0.9,0.7-1.4,1.3-1.4,1.3c0,0,3.7-3.8,3.4-4.1c-0.2-0.2-1.4,0.5-2.4,1.4c-1.2,1.1-1.6,2.3-1.7,2.3c-0.1-0.1,4.5-9.5,4.1-9.7
		c-0.2-0.1-1.6,2.1-2.3,3.1c-1.4,2.1-1.9,3.4-2.2,3.3c-0.5-0.2,0.2-3.7,0-3.7c-0.1,0-0.4,1.2-0.7,2.5c-0.3,1.6-0.3,2.5-0.4,2.5
		c-0.2,0,0.2-9.9-0.1-9.9c-0.2,0-0.7,5.2-0.9,5.2c-0.1,0,0.1-2-0.1-4.8c-0.2-2.4-0.7-4.7-0.8-4.7c-0.1,0-0.1,0.7,0,4.9
		c0.1,3.3,0.1,4.9,0,4.9c-0.1,0-0.2-1.4-0.6-3.6c-0.3-1.5-0.8-3.5-0.9-3.5c-0.1,0,0.1,3.1,0.5,6c0.1,0.8,0.3,2.1,0.3,2.1
		s-0.4-1.5-1.3-3.2c-0.1-0.2-0.9-1.6-1.1-1.5c-0.4,0.2,2.3,7.8,2.2,7.8c0,0-0.3-0.8-0.8-1.8c-0.9-2-2.2-4-2.3-4
		c-0.3,0.2,2.7,7.3,2.6,7.3s-2.8-6-3-5.9c-0.2,0.1,2.3,6.6,1.9,6.8c-0.3,0.1-2.2-4.1-2.4-4c-0.2,0.1,0.3,1.9,1.3,3.7
		c0.3,0.5,0.6,1,0.5,1c-0.1,0.1-2.4-3.4-2.6-3.3c-0.1,0.1,0.4,1.5,1.4,2.7c0.6,0.8,1.3,1.4,1.2,1.5s-0.5-0.4-1.2-0.8
		c-0.9-0.6-1.9-0.9-2-0.8c-0.1,0.2,1.7,0.8,3.4,2.7c0.7,0.8,0.9,1.1,1.4,1.2c1.1,0.2,1.8-1,2.9-0.6
		C1131.3,558,1131.6,558.2,1131.9,558.1z"/>
	<path class="st84" d="M1142.3,556.7c0.2-0.2,0.3-0.4,0.3-0.7c0.3-1.3,2.2-6.1,1.9-6.2c-0.2-0.1-0.6,0.8-1,1.5
		c-0.5,1-0.8,1.7-0.9,1.7s2-4.9,1.6-5.1c-0.2-0.1-1.1,1-1.7,2.2c-0.7,1.5-0.7,2.8-0.7,2.8c-0.2,0,0.6-10.5,0.1-10.6
		c-0.2,0-0.7,2.5-1,3.7c-0.5,2.5-0.5,3.8-0.8,3.8c-0.5,0-1.2-3.5-1.4-3.4c-0.1,0,0.1,1.3,0.3,2.6c0.3,1.6,0.6,2.5,0.6,2.5
		c-0.2,0.1-3.5-9.2-3.8-9.1c-0.2,0.1,1.3,5.1,1.1,5.2c-0.1,0-0.6-1.9-1.9-4.4c-1.1-2.2-2.4-4.1-2.5-4c-0.1,0,0.2,0.7,1.9,4.6
		c1.3,3,2,4.5,1.9,4.6s-0.7-1.2-1.9-3.1c-0.8-1.3-2-3-2.2-2.9c-0.1,0.1,1.2,2.8,2.7,5.3c0.4,0.7,1.1,1.8,1,1.8
		c-0.1,0-0.9-1.2-2.5-2.5c-0.2-0.2-1.4-1.1-1.5-1c-0.3,0.3,5.1,6.3,5,6.4c0,0-0.6-0.6-1.4-1.4c-1.6-1.5-3.5-2.9-3.7-2.8
		c-0.2,0.3,5.3,5.7,5.2,5.8c-0.1,0.1-4.8-4.5-5-4.3c-0.2,0.2,4.6,5.3,4.3,5.6c-0.2,0.2-3.6-3-3.7-2.8c-0.1,0.1,1,1.7,2.6,3
		c0.5,0.4,0.9,0.7,0.9,0.7c-0.1,0.1-3.5-2.3-3.7-2c-0.1,0.1,1,1.2,2.3,2c0.9,0.5,1.7,0.8,1.7,0.9c0,0.1-0.6-0.2-1.4-0.3
		c-1-0.2-2.1-0.1-2.2,0c0,0.2,1.9,0.1,4.2,1.2c1,0.5,1.2,0.7,1.7,0.6c1.1-0.2,1.3-1.6,2.4-1.7C1141.7,556.9,1142,556.9,1142.3,556.7
		z"/>
	<path class="st84" d="M1105.5,564.8c0.2-0.1,0.5-0.3,0.6-0.6c0.8-1.2,4.6-5.2,4.3-5.5c-0.1-0.1-0.9,0.6-1.6,1.1
		c-0.9,0.8-1.5,1.4-1.5,1.4c0,0,3.9-4.1,3.5-4.5c-0.2-0.2-1.5,0.5-2.6,1.6c-1.2,1.2-1.7,2.5-1.8,2.5c-0.2-0.1,4.7-10.3,4.3-10.5
		c-0.2-0.1-1.7,2.3-2.4,3.3c-1.4,2.3-2,3.6-2.3,3.5c-0.5-0.2,0.2-4,0-4c-0.1,0-0.5,1.3-0.7,2.7c-0.3,1.7-0.4,2.8-0.4,2.7
		c-0.2,0,0.2-10.7-0.1-10.7c-0.2,0-0.8,5.7-0.9,5.7c-0.1,0,0.1-2.2-0.1-5.2c-0.2-2.6-0.7-5.1-0.9-5.1c-0.1,0-0.1,0.7,0,5.4
		c0.1,3.6,0.1,5.4,0,5.4c-0.1,0-0.2-1.5-0.6-3.9c-0.3-1.6-0.8-3.8-1-3.8c-0.2,0,0.1,3.4,0.5,6.5c0.1,0.8,0.4,2.2,0.3,2.2
		s-0.4-1.6-1.4-3.5c-0.1-0.2-0.9-1.7-1.1-1.6c-0.5,0.2,2.5,8.4,2.3,8.5c0,0-0.3-0.9-0.8-2c-1-2.2-2.3-4.4-2.5-4.3
		c-0.3,0.2,2.9,7.9,2.7,8c-0.2,0.1-2.9-6.5-3.2-6.4c-0.3,0.1,2.4,7.2,2,7.4c-0.3,0.1-2.3-4.5-2.5-4.4c-0.2,0.1,0.3,2.1,1.4,4
		c0.3,0.6,0.6,1.1,0.6,1.1c-0.1,0.1-2.6-3.7-2.8-3.6c-0.1,0.1,0.5,1.6,1.5,3c0.7,0.9,1.4,1.5,1.3,1.6c0,0-0.5-0.4-1.2-0.9
		c-0.9-0.6-2-1-2.1-0.9c-0.1,0.2,1.8,0.9,3.6,3c0.8,0.9,0.9,1.2,1.5,1.3c1.1,0.2,1.9-1.1,3.1-0.7
		C1104.8,564.8,1105.1,565,1105.5,564.8z"/>
	<path class="st84" d="M1112.7,564.8c0.2-0.1,0.5-0.3,0.6-0.6c0.8-1.2,4.6-5.2,4.3-5.5c-0.1-0.1-0.9,0.6-1.6,1.1
		c-0.9,0.8-1.5,1.4-1.5,1.4c0,0,3.9-4.1,3.5-4.5c-0.2-0.2-1.5,0.5-2.6,1.6c-1.2,1.2-1.7,2.5-1.8,2.5c-0.2-0.1,4.7-10.3,4.3-10.5
		c-0.2-0.1-1.7,2.3-2.4,3.3c-1.4,2.3-2,3.6-2.3,3.5c-0.5-0.2,0.2-4,0-4c-0.1,0-0.5,1.3-0.7,2.7c-0.3,1.7-0.4,2.8-0.4,2.7
		c-0.2,0,0.2-10.7-0.1-10.7c-0.2,0-0.8,5.7-0.9,5.7c-0.1,0,0.1-2.2-0.1-5.2c-0.2-2.6-0.7-5.1-0.9-5.1c-0.1,0-0.1,0.7,0,5.4
		c0.1,3.6,0.1,5.4,0,5.4c-0.1,0-0.2-1.5-0.6-3.9c-0.3-1.6-0.8-3.8-1-3.8s0.1,3.4,0.5,6.5c0.1,0.8,0.4,2.2,0.3,2.2s-0.4-1.6-1.4-3.5
		c-0.1-0.2-0.9-1.7-1.1-1.6c-0.5,0.2,2.5,8.4,2.3,8.5c0,0-0.3-0.9-0.8-2c-1-2.2-2.3-4.4-2.5-4.3c-0.3,0.2,2.9,7.9,2.7,8
		c-0.2,0.1-2.9-6.5-3.2-6.4c-0.3,0.1,2.4,7.2,2,7.4c-0.3,0.1-2.3-4.5-2.5-4.4c-0.2,0.1,0.3,2.1,1.4,4c0.3,0.6,0.6,1.1,0.6,1.1
		c-0.1,0.1-2.6-3.7-2.8-3.6c-0.1,0.1,0.5,1.6,1.5,3c0.7,0.9,1.4,1.5,1.3,1.6c0,0-0.5-0.4-1.2-0.9c-0.9-0.6-2-1-2.1-0.9
		c-0.1,0.2,1.8,0.9,3.6,3c0.8,0.9,0.9,1.2,1.5,1.3c1.1,0.2,1.9-1.1,3.1-0.7C1112,564.8,1112.3,565,1112.7,564.8z"/>
	<path class="st84" d="M1075.4,571.9c0.3-0.1,0.6-0.4,0.8-0.6c1.1-1.4,6-6.1,5.7-6.4c-0.2-0.1-1.2,0.7-2.1,1.3c-1.2,0.9-2,1.6-2,1.6
		s5.1-4.8,4.6-5.2c-0.2-0.3-2,0.6-3.4,1.8c-1.6,1.4-2.3,2.9-2.3,2.9c-0.2-0.1,6.2-12,5.7-12.3c-0.3-0.1-2.3,2.6-3.2,3.9
		c-1.9,2.7-2.6,4.2-3,4.1c-0.7-0.2,0.3-4.6,0-4.6c-0.1,0-0.6,1.6-1,3.2c-0.4,2-0.5,3.2-0.6,3.2c-0.2,0,0.3-12.5-0.1-12.5
		c-0.3,0-1,6.6-1.2,6.6c-0.1,0,0.2-2.5-0.1-6c-0.3-3.1-0.9-5.9-1.2-5.9c-0.1,0-0.1,0.9,0,6.2c0.1,4.2,0.2,6.2,0.1,6.2
		s-0.2-1.8-0.8-4.5c-0.4-1.9-1.1-4.4-1.3-4.4c-0.2,0,0.1,3.9,0.7,7.5c0.2,1,0.5,2.6,0.3,2.6c-0.1,0-0.5-1.9-1.9-4.1
		c-0.2-0.3-1.2-2-1.5-1.9c-0.6,0.2,3.2,9.8,3.1,9.9c0,0-0.4-1-1.1-2.3c-1.3-2.5-3-5.1-3.2-5c-0.5,0.2,3.8,9.2,3.6,9.3
		s-3.8-7.6-4.2-7.5c-0.3,0.1,3.1,8.4,2.6,8.6c-0.4,0.1-3-5.2-3.3-5.1c-0.2,0.1,0.5,2.5,1.8,4.7c0.4,0.7,0.8,1.2,0.7,1.3
		c-0.1,0.1-3.4-4.3-3.6-4.1c-0.2,0.1,0.6,1.9,1.9,3.5c0.9,1,1.8,1.8,1.7,1.8c-0.1,0.1-0.7-0.5-1.6-1.1c-1.2-0.7-2.7-1.2-2.8-1
		c-0.1,0.2,2.3,1,4.7,3.5c1,1,1.2,1.4,1.9,1.5c1.5,0.2,2.5-1.3,4-0.8C1074.6,571.8,1075,572.1,1075.4,571.9z"/>
	<path class="st84" d="M1079.3,568.5c0.2-0.1,0.4-0.3,0.4-0.6c0.5-1.2,3.4-5.3,3.1-5.5c-0.1-0.1-0.8,0.7-1.3,1.2
		c-0.7,0.8-1.2,1.5-1.2,1.5c0,0,2.9-4.2,2.5-4.5c-0.2-0.2-1.3,0.7-2.1,1.8c-0.9,1.3-1.2,2.4-1.2,2.4c-0.2,0,2.6-9.6,2.2-9.7
		c-0.2-0.1-1.2,2.2-1.7,3.3c-0.9,2.2-1.2,3.4-1.5,3.4c-0.5,0-0.5-3.4-0.7-3.3c-0.1,0-0.2,1.2-0.2,2.4c0,1.5,0.2,2.4,0.1,2.4
		c-0.2,0-1.7-9-2-9c-0.2,0,0.3,4.9,0.1,4.9c-0.1,0-0.3-1.9-1-4.3c-0.7-2.2-1.6-4.1-1.8-4.1c-0.1,0,0.1,0.6,1,4.5
		c0.7,3,1.1,4.5,1,4.5c-0.1,0-0.4-1.2-1.3-3.1c-0.6-1.3-1.4-3-1.6-3c-0.1,0.1,0.7,2.8,1.7,5.3c0.3,0.7,0.7,1.8,0.7,1.8
		c-0.1,0-0.6-1.3-2-2.7c-0.2-0.2-1.2-1.2-1.3-1.1c-0.4,0.3,3.8,6.6,3.7,6.6c0,0-0.5-0.7-1.1-1.5c-1.3-1.6-2.9-3.2-3.1-3.1
		c-0.3,0.2,4.1,6,4,6.1s-3.9-4.9-4.2-4.7c-0.2,0.1,3.5,5.5,3.2,5.7c-0.2,0.2-3-3.3-3.2-3.1c-0.1,0.1,0.7,1.7,2,3.1
		c0.4,0.4,0.8,0.8,0.7,0.8c-0.1,0.1-3.1-2.6-3.3-2.4c-0.1,0.1,0.7,1.2,1.9,2.2c0.8,0.6,1.5,1,1.5,1.1c0,0-0.5-0.3-1.3-0.5
		c-1-0.3-2.1-0.4-2.1-0.3c-0.1,0.2,1.8,0.4,3.9,1.8c0.9,0.6,1.1,0.8,1.6,0.8c1.1-0.1,1.6-1.3,2.7-1.2
		C1078.7,568.6,1079,568.7,1079.3,568.5z"/>
	<path class="st84" d="M1086.1,567.1c0.2-0.1,0.4-0.3,0.4-0.6c0.5-1.2,3.4-5.3,3.1-5.5c-0.1-0.1-0.8,0.7-1.3,1.2
		c-0.7,0.8-1.2,1.5-1.2,1.5s2.9-4.2,2.5-4.5c-0.2-0.2-1.3,0.7-2.1,1.8c-0.9,1.3-1.2,2.4-1.2,2.4c-0.2,0,2.6-9.6,2.2-9.7
		c-0.2-0.1-1.2,2.2-1.7,3.3c-0.9,2.2-1.2,3.4-1.5,3.4c-0.5,0-0.5-3.4-0.7-3.3c-0.1,0-0.2,1.2-0.2,2.4c0,1.5,0.2,2.4,0.1,2.4
		c-0.2,0-1.7-9-2-9c-0.2,0,0.3,4.9,0.1,4.9c-0.1,0-0.3-1.9-1-4.3c-0.7-2.2-1.6-4.1-1.8-4.1c-0.1,0,0.1,0.6,1,4.5
		c0.7,3,1.1,4.5,1,4.5c-0.1,0-0.4-1.2-1.3-3.1c-0.6-1.3-1.4-3-1.6-3s0.7,2.8,1.7,5.3c0.3,0.7,0.7,1.8,0.7,1.8c-0.1,0-0.6-1.3-2-2.7
		c-0.2-0.2-1.2-1.2-1.3-1.1c-0.4,0.3,3.8,6.6,3.7,6.6c0,0-0.5-0.7-1.1-1.5c-1.3-1.6-2.9-3.2-3.1-3.1c-0.3,0.2,4.1,6,4,6.1
		s-3.9-4.9-4.2-4.7s3.5,5.5,3.2,5.7c-0.2,0.2-3-3.3-3.2-3.1c-0.1,0.1,0.7,1.7,2,3.1c0.4,0.4,0.8,0.8,0.7,0.8
		c-0.1,0.1-3.1-2.6-3.3-2.4c-0.1,0.1,0.7,1.2,1.9,2.2c0.8,0.6,1.5,1,1.5,1.1c0,0-0.5-0.3-1.3-0.5c-1-0.3-2.1-0.4-2.1-0.3
		c-0.1,0.2,1.8,0.4,3.9,1.8c0.9,0.6,1.1,0.8,1.6,0.8c1.1-0.1,1.6-1.3,2.7-1.2C1085.4,567.1,1085.8,567.3,1086.1,567.1z"/>
	<path class="st84" d="M1094.1,568c0.2-0.1,0.4-0.3,0.4-0.6c0.5-1.2,3.4-5.3,3.1-5.5c-0.1-0.1-0.8,0.7-1.3,1.2
		c-0.7,0.8-1.2,1.5-1.2,1.5c0,0,2.9-4.2,2.5-4.5c-0.2-0.2-1.3,0.7-2.1,1.8c-0.9,1.3-1.2,2.4-1.2,2.4c-0.2,0,2.6-9.6,2.2-9.7
		c-0.2-0.1-1.2,2.2-1.7,3.3c-0.9,2.2-1.2,3.4-1.5,3.4c-0.5,0-0.5-3.4-0.7-3.3c-0.1,0-0.2,1.2-0.2,2.4c0,1.5,0.2,2.4,0.1,2.4
		c-0.2,0-1.7-9-2-9c-0.2,0,0.3,4.9,0.1,4.9c-0.1,0-0.3-1.9-1-4.3c-0.7-2.2-1.6-4.1-1.8-4.1c-0.1,0,0.1,0.6,1,4.5
		c0.7,3,1.1,4.5,1,4.5c-0.1,0-0.4-1.2-1.3-3.1c-0.6-1.3-1.4-3-1.6-3c-0.1,0.1,0.7,2.8,1.7,5.3c0.3,0.7,0.7,1.8,0.7,1.8
		c-0.1,0-0.6-1.3-2-2.7c-0.2-0.2-1.2-1.2-1.3-1.1c-0.4,0.3,3.8,6.6,3.7,6.6c0,0-0.5-0.7-1.1-1.5c-1.3-1.6-2.9-3.2-3.1-3.1
		c-0.3,0.2,4.1,6,4,6.1s-3.9-4.9-4.2-4.7s3.5,5.5,3.2,5.7c-0.2,0.2-3-3.3-3.2-3.1c-0.1,0.1,0.7,1.7,2,3.1c0.4,0.4,0.8,0.8,0.7,0.8
		c-0.1,0.1-3.1-2.6-3.3-2.4c-0.1,0.1,0.7,1.2,1.9,2.2c0.8,0.6,1.5,1,1.5,1.1c0,0-0.5-0.3-1.3-0.5c-1-0.3-2.1-0.4-2.1-0.3
		c-0.1,0.2,1.8,0.4,3.9,1.8c0.9,0.6,1.1,0.8,1.6,0.8c1.1-0.1,1.6-1.3,2.7-1.2C1093.4,568.1,1093.8,568.2,1094.1,568z"/>
	<path class="st84" d="M1049.5,564.1c0.1-0.3,0.1-0.7-0.1-1c-0.5-1.7-1.3-8.5-1.7-8.4c-0.2,0-0.2,1.4-0.2,2.5c0,1.5,0.1,2.5,0.1,2.6
		c0,0-0.8-6.9-1.4-6.8c-0.3,0-0.7,1.9-0.6,3.8c0.2,2.2,1,3.6,0.9,3.6c-0.2,0.1-5.9-12.1-6.5-11.9c-0.3,0.1,0.7,3.4,1.2,4.9
		c1,3.1,1.9,4.6,1.5,4.9c-0.6,0.4-3.5-3-3.7-2.8c-0.1,0.1,0.9,1.4,2,2.7c1.3,1.5,2.3,2.3,2.2,2.4c-0.1,0.2-9.8-7.7-10.1-7.4
		c-0.2,0.2,4.7,4.7,4.5,4.9c-0.1,0.1-1.9-1.7-4.9-3.5c-2.6-1.6-5.3-2.8-5.4-2.6c-0.1,0.1,0.6,0.6,5,3.7c3.4,2.4,5.1,3.6,5,3.7
		s-1.5-0.9-4.1-2c-1.8-0.8-4.2-1.8-4.3-1.6c-0.1,0.2,3.2,2.3,6.5,3.9c0.9,0.4,2.4,1.2,2.3,1.3c-0.1,0.1-1.8-0.7-4.4-1
		c-0.3,0-2.3-0.2-2.4,0.1c-0.2,0.6,9.8,3.3,9.8,3.4c0,0-1.1-0.2-2.5-0.5c-2.8-0.5-5.9-0.7-5.9-0.4c-0.1,0.5,9.6,2.5,9.6,2.7
		s-8.4-1.5-8.5-1.1s8.6,2.5,8.5,3c-0.1,0.4-6-0.7-6.1-0.4c-0.1,0.2,2.2,1.1,4.8,1.4c0.8,0.1,1.5,0.1,1.4,0.2c0,0.2-5.5,0.1-5.5,0.4
		c0,0.2,1.9,0.6,3.9,0.5c1.3-0.1,2.5-0.4,2.5-0.3c0,0.1-0.8,0.2-1.8,0.6c-1.3,0.6-2.5,1.4-2.5,1.6c0.1,0.2,2.2-1.3,5.6-1.7
		c1.4-0.2,1.8-0.2,2.3-0.7c1.1-1,0.5-2.8,1.8-3.7C1048.8,564.7,1049.3,564.6,1049.5,564.1z"/>
	<path class="st84" d="M1042.4,570.2c0.3,0.1,0.6,0,0.8-0.1c1.3-0.5,6.7-1.3,6.6-1.7c0-0.2-1.1-0.1-2-0.1c-1.2,0-2,0.2-2,0.2
		c0,0,5.5-0.9,5.4-1.4c0-0.3-1.6-0.5-3-0.3c-1.7,0.2-2.8,0.9-2.8,0.9c-0.1-0.2,9.5-5.2,9.2-5.6c-0.1-0.2-2.7,0.7-3.8,1.2
		c-2.5,0.9-3.6,1.6-3.8,1.4c-0.4-0.4,2.2-2.9,2.1-3.1c-0.1-0.1-1.1,0.8-2,1.7c-1.2,1.1-1.7,1.9-1.8,1.9c-0.2-0.1,5.8-8.1,5.5-8.3
		c-0.2-0.1-3.6,3.9-3.7,3.8c-0.1-0.1,1.3-1.6,2.6-4c1.2-2.1,2-4.3,1.9-4.4c-0.1-0.1-0.5,0.5-2.8,4.1c-1.8,2.8-2.7,4.2-2.8,4.2
		c-0.1,0,0.7-1.3,1.5-3.3c0.6-1.4,1.3-3.4,1.1-3.5c-0.1-0.1-1.7,2.6-2.9,5.3c-0.3,0.7-0.9,1.9-0.9,1.9c-0.1-0.1,0.5-1.5,0.6-3.5
		c0-0.3,0.1-1.8-0.1-1.9c-0.5-0.1-2.3,7.9-2.4,7.9c0,0,0.2-0.9,0.3-2c0.3-2.2,0.3-4.7,0.1-4.7c-0.4-0.1-1.6,7.7-1.8,7.7
		c-0.2,0,0.9-6.7,0.6-6.8c-0.3-0.1-1.7,6.9-2.1,6.8c-0.3-0.1,0.3-4.8,0.1-4.8c-0.2,0-0.8,1.8-0.9,3.9c0,0.6,0,1.2-0.1,1.2
		c-0.1,0-0.3-4.4-0.6-4.4c-0.2,0-0.4,1.5-0.3,3.1c0.1,1.1,0.4,2,0.3,2c-0.1,0-0.2-0.6-0.6-1.4c-0.5-1-1.2-2-1.4-1.9
		c-0.2,0.1,1.1,1.7,1.6,4.4c0.2,1.1,0.2,1.4,0.6,1.8c0.9,0.8,2.2,0.3,3,1.3C1041.8,569.7,1042,570,1042.4,570.2z"/>
	<path class="st84" d="M434.6,548.1c-2.9,3.1-6.4,11.4-6.4,11.4s1.9-8.6,3-11.1c1.1-2.5,4.9-7,4.9-7s-3.2,2.8-5.2,6
		c-2.1,3.1-3.3,9-3.3,9s1.3-7.8,2.1-10.8c0.8-3,3.6-5.5,3.6-5.5s-1.7,0.2-3.9,4.6c-2.3,4.4-3.2,12.8-3.2,12.8s0.6-6,0.3-10.4
		c-0.3-4.4-1.1-8.4-1.1-8.4s0.5,10.3,0.2,13.9c-0.3,3.6-1.5,6.8-1.5,6.8s0-2.2,0-4.6c0-2.4,0.1-7.6,0.2-10.7
		c0.1-3.1,0.8-9.7,0.8-9.7s-0.6,3.4-1.4,8.5c-0.8,5.1-0.6,11.5-0.6,11.5s-0.4-6.1-1.9-9.1c-1.5-3-3.6-1.9-3.6-1.9s2.9,0.2,3.7,4.6
		c0.8,4.4,0.6,9.9,0.6,9.9s-1.1-5.8-3-10.6c-1.9-4.8-6.6-7.6-6.6-7.6s3.6,3.4,5.6,8.2c1.9,4.8,2.6,10.6,2.6,10.6s-1.1-3.6-3.2-7.6
		c-2.1-4-4.7-6.7-4.7-6.7s2.5,4,4.3,7.5c1.8,3.5,2.7,8.6,2.7,8.6h12.2c0,0,0.9-6.5,2.7-9.9c1.8-3.4,5.3-5.8,5.3-5.8
		S437.5,545,434.6,548.1z"/>
	<path class="st84" d="M444.9,547.3c-0.5,1.2-0.7,3.9-0.7,3.9s-0.3-2.6-0.2-3.4c0.1-0.8,0.7-2.5,0.7-2.5s-0.6,1.1-0.9,2.2
		c-0.3,1.1-0.1,2.9-0.1,2.9s-0.4-2.3-0.4-3.3c-0.1-0.9,0.5-1.9,0.5-1.9s-0.5,0.2-0.7,1.7c-0.2,1.5,0.3,3.9,0.3,3.9s-0.4-1.8-0.9-3
		c-0.5-1.2-1.1-2.3-1.1-2.3s1.1,2.9,1.4,3.9c0.3,1,0.2,2.1,0.2,2.1s-0.2-0.6-0.4-1.3c-0.2-0.7-0.7-2.2-1-3c-0.3-0.9-0.7-2.8-0.7-2.8
		s0.2,1,0.4,2.5c0.3,1.5,1,3.3,1,3.3s-0.7-1.7-1.4-2.4c-0.7-0.7-1.2-0.2-1.2-0.2s0.8-0.2,1.5,1c0.6,1.2,1.1,2.7,1.1,2.7
		s-0.9-1.5-1.9-2.7c-1-1.2-2.6-1.5-2.6-1.5s1.3,0.6,2.4,1.8c1,1.2,1.8,2.8,1.8,2.8s-0.7-0.9-1.6-1.8c-1-0.9-2-1.4-2-1.4
		s1.1,0.9,1.9,1.7c0.8,0.8,1.6,2.2,1.6,2.2l3.4-1.2c0,0-0.4-1.9-0.2-3.1c0.2-1.1,0.9-2.1,0.9-2.1S445.5,546.2,444.9,547.3z"/>
	<path class="st84" d="M451.1,545.4c-0.9,1.7-1.3,5.6-1.3,5.6s-0.2-3.8-0.1-5c0.1-1.2,1.2-3.5,1.2-3.5s-1,1.6-1.5,3.1
		c-0.5,1.6-0.3,4.2-0.3,4.2s-0.4-3.4-0.4-4.8c0-1.4,0.8-2.7,0.8-2.7s-0.7,0.3-1.1,2.4c-0.4,2.1,0.2,5.7,0.2,5.7s-0.5-2.6-1.1-4.4
		c-0.7-1.8-1.4-3.4-1.4-3.4s1.4,4.2,1.7,5.8c0.3,1.5,0.2,3,0.2,3s-0.3-0.9-0.5-1.9c-0.3-1-0.9-3.2-1.2-4.5c-0.4-1.3-0.8-4.1-0.8-4.1
		s0.1,1.5,0.4,3.7c0.3,2.3,1.1,4.9,1.1,4.9s-0.9-2.5-1.9-3.6c-1-1.1-1.7-0.4-1.7-0.4s1.2-0.3,2.1,1.5c0.8,1.8,1.4,4.1,1.4,4.1
		s-1.1-2.3-2.5-4.1c-1.4-1.8-3.7-2.4-3.7-2.4s1.9,1,3.3,2.8c1.4,1.8,2.3,4.1,2.3,4.1s-0.9-1.4-2.2-2.8c-1.4-1.4-2.8-2.2-2.8-2.2
		s1.5,1.4,2.7,2.6c1.2,1.2,2.2,3.3,2.2,3.3l5.1-1.4c0,0-0.4-2.8,0-4.4c0.4-1.6,1.5-3,1.5-3S451.9,543.7,451.1,545.4z"/>
	<path class="st84" d="M856.6,626.7v-63.1l45.3-63.1c0,0,11.1,1.5,25.9,4.7c1.8,0.4-7.8,3.1-5.8,3.5c1.7,0.4,14.9-1.4,16.6-0.9
		c23.9,6.2,52.1,16.6,60,32.6c14.4,29.1,75.6,23.2,75.6,23.2l101.7-25.1l28.8-22.7l4.4,2.1l6.8-11l78.2-61.7
		c0,0,34.5-15.8,116.6,118.4v63.1H856.6z"/>
	<g>
		<polygon class="st84" points="1238.6,577.8 1121.8,577.8 1135.8,148.9 1218,148.9 		"/>
		<polygon class="st84" points="1093.9,110.5 1093.9,134.9 1135.8,148.9 1180.2,148.9 1180.2,110.5 		"/>
		<polygon class="st84" points="1260.1,110.5 1260.1,134.9 1218.2,148.9 1173.8,148.9 1173.8,110.5 		"/>
		<rect x="1141.1" y="39.7" class="st84" width="70.8" height="70.8"/>
		<path class="st9" d="M1141.5,39.7c-0.2-1.4-0.3-2.9-0.3-4.4c0-19.5,15.8-35.3,35.3-35.3s35.3,15.8,35.3,35.3
			c0,1.5-0.1,2.9-0.3,4.4L1141.5,39.7z"/>
		<rect x="1162.7" y="34.7" class="st9" width="27.7" height="75.8"/>
	</g>
	<linearGradient id="SVGID_1_" gradientUnits="userSpaceOnUse" x1="818.7602" y1="50.3407" x2="1141.1492" y2="50.3407">
		<stop  offset="2.001470e-02" style="stop-color:#3A556E"/>
		<stop  offset="0.1537" style="stop-color:#3E5870"/>
		<stop  offset="0.2918" style="stop-color:#485F77"/>
		<stop  offset="0.4319" style="stop-color:#5B6D82"/>
		<stop  offset="0.5734" style="stop-color:#768293"/>
		<stop  offset="0.7161" style="stop-color:#989FAA"/>
		<stop  offset="0.8581" style="stop-color:#C5C7C9"/>
		<stop  offset="1" style="stop-color:#FCFCF0"/>
	</linearGradient>
	<polygon style="opacity:0.3;fill:url(#SVGID_1_);" points="1139.4,88.4 1141.1,54 818.8,12.3 818.8,88.4 	"/>
	<linearGradient id="SVGID_2_" gradientUnits="userSpaceOnUse" x1="1740.5199" y1="58.3038" x2="1218.397" y2="63.6863">
		<stop  offset="2.001470e-02" style="stop-color:#3A556E"/>
		<stop  offset="0.1537" style="stop-color:#3E5870"/>
		<stop  offset="0.2918" style="stop-color:#485F77"/>
		<stop  offset="0.4319" style="stop-color:#5B6D82"/>
		<stop  offset="0.5734" style="stop-color:#768293"/>
		<stop  offset="0.7161" style="stop-color:#989FAA"/>
		<stop  offset="0.8581" style="stop-color:#C5C7C9"/>
		<stop  offset="1" style="stop-color:#FCFCF0"/>
	</linearGradient>
	<rect x="1211.9" y="49.5" style="opacity:0.3;fill:url(#SVGID_2_);" width="521.9" height="23.1"/>
</g>
</svg>
