<?xml version="1.0" encoding="utf-8"?>
<!-- Generator: Adobe Illustrator 22.0.1, SVG Export Plug-In . SVG Version: 6.00 Build 0)  -->
<svg version="1.1" id="Calque_1" xmlns="http://www.w3.org/2000/svg" xmlns:xlink="http://www.w3.org/1999/xlink" x="0px" y="0px"
	 viewBox="0 0 2972.3 333.9" style="enable-background:new 0 0 2972.3 333.9;" xml:space="preserve">
<style type="text/css">
	.st0{fill:#FFFFFF;}
	.st1{fill:url(#SVGID_1_);stroke:#0C0D16;stroke-miterlimit:10;}
	.st2{opacity:0.7;fill:url(#SVGID_2_);}
	.st3{opacity:0.1;fill:#608291;}
	.st4{opacity:0.15;fill:url(#SVGID_3_);}
	.st5{opacity:0.8;fill:url(#SVGID_4_);}
	.st6{opacity:0.8;fill:#1E2635;}
	.st7{opacity:0.8;fill:url(#SVGID_5_);}
	.st8{fill:url(#SVGID_6_);}
	.st9{fill:#1E2635;}
	.st10{opacity:0.8;fill:url(#SVGID_7_);}
	.st11{fill:url(#SVGID_8_);}
	.st12{fill:url(#SVGID_9_);}
	.st13{fill:url(#SVGID_10_);}
	.st14{fill:url(#SVGID_11_);}
	.st15{fill:url(#SVGID_12_);stroke:#0C0D16;stroke-miterlimit:10;}
	.st16{opacity:0.7;fill:url(#SVGID_13_);}
	.st17{opacity:0.15;fill:url(#SVGID_14_);}
	.st18{opacity:0.8;fill:url(#SVGID_15_);}
	.st19{opacity:0.8;fill:url(#SVGID_16_);}
	.st20{fill:url(#SVGID_17_);}
	.st21{fill:url(#SVGID_18_);}
	.st22{opacity:0.8;fill:url(#SVGID_19_);}
	.st23{fill:url(#SVGID_20_);}
	.st24{fill:url(#SVGID_21_);}
	.st25{fill:url(#SVGID_22_);stroke:#0C0D16;stroke-miterlimit:10;}
	.st26{opacity:0.7;fill:url(#SVGID_23_);}
	.st27{opacity:0.15;fill:url(#SVGID_24_);}
	.st28{opacity:0.4;fill:url(#SVGID_25_);}
	.st29{opacity:0.8;fill:url(#SVGID_26_);}
	.st30{opacity:0.8;fill:url(#SVGID_27_);}
	.st31{fill:url(#SVGID_28_);}
	.st32{opacity:0.8;fill:url(#SVGID_29_);}
	.st33{opacity:0.6;fill:url(#SVGID_30_);}
	.st34{fill:url(#SVGID_31_);}
	.st35{opacity:0.8;fill:url(#SVGID_32_);}
	.st36{fill:url(#SVGID_33_);}
	.st37{opacity:0.8;fill:url(#SVGID_34_);}
	.st38{fill:url(#SVGID_35_);}
	.st39{opacity:0.8;fill:url(#SVGID_36_);}
	.st40{opacity:0.6;fill:url(#SVGID_37_);}
	.st41{fill:url(#SVGID_38_);}
	.st42{fill:url(#SVGID_39_);}
	.st43{fill:url(#SVGID_40_);}
	.st44{fill:#151325;}
	.st45{fill:#201B3D;}
	.st46{fill:url(#SVGID_41_);stroke:#0C0D16;stroke-miterlimit:10;}
	.st47{opacity:0.7;fill:url(#SVGID_42_);}
	.st48{opacity:0.15;fill:url(#SVGID_43_);}
	.st49{opacity:0.8;fill:url(#SVGID_44_);}
	.st50{opacity:0.8;fill:url(#SVGID_45_);}
	.st51{fill:url(#SVGID_46_);}
	.st52{fill:url(#SVGID_47_);}
	.st53{opacity:0.8;fill:url(#SVGID_48_);}
	.st54{fill:url(#SVGID_49_);}
	.st55{fill:url(#SVGID_50_);}
	.st56{fill:url(#SVGID_51_);}
	.st57{fill:url(#SVGID_52_);stroke:#0C0D16;stroke-miterlimit:10;}
	.st58{opacity:0.7;fill:url(#SVGID_53_);}
	.st59{opacity:0.15;fill:url(#SVGID_54_);}
	.st60{opacity:0.8;fill:url(#SVGID_55_);}
	.st61{opacity:0.8;fill:url(#SVGID_56_);}
	.st62{fill:url(#SVGID_57_);}
	.st63{opacity:0.8;fill:url(#SVGID_58_);}
	.st64{fill:url(#SVGID_59_);}
	.st65{fill:url(#SVGID_60_);}
	.st66{fill:url(#SVGID_61_);}
	.st67{fill:url(#SVGID_62_);}
	.st68{opacity:0.8;fill:url(#SVGID_63_);}
	.st69{opacity:0.8;fill:url(#SVGID_64_);}
	.st70{fill:url(#SVGID_65_);}
	.st71{fill:url(#SVGID_66_);}
	.st72{fill:url(#SVGID_67_);}
	.st73{fill:url(#SVGID_68_);}
	.st74{opacity:0.8;fill:url(#SVGID_69_);}
	.st75{opacity:0.8;fill:url(#SVGID_70_);}
	.st76{fill:url(#SVGID_71_);}
	.st77{fill:url(#SVGID_72_);}
	.st78{fill:url(#SVGID_73_);}
	.st79{opacity:0.8;fill:url(#SVGID_74_);}
	.st80{opacity:0.8;fill:url(#SVGID_75_);}
	.st81{fill:url(#SVGID_76_);}
	.st82{fill:url(#SVGID_77_);}
	.st83{fill:url(#SVGID_78_);}
	.st84{fill:#0C0D16;stroke:#0C0D16;stroke-miterlimit:10;}
	.st85{fill:#26284A;}
	.st86{fill:url(#SVGID_79_);}
	.st87{fill:url(#SVGID_80_);}
	.st88{fill:url(#SVGID_81_);}
	.st89{fill:url(#SVGID_82_);}
	.st90{fill:url(#SVGID_83_);}
	.st91{fill:url(#SVGID_84_);}
	.st92{fill:url(#SVGID_85_);}
	.st93{fill:url(#SVGID_86_);}
	.st94{fill:url(#SVGID_87_);}
	.st95{fill:url(#SVGID_88_);}
	.st96{fill:url(#SVGID_89_);}
	.st97{fill:url(#SVGID_90_);}
	.st98{fill:url(#SVGID_91_);}
	.st99{fill:url(#SVGID_92_);}
	.st100{fill:url(#SVGID_93_);}
	.st101{fill:#9BD5E4;}
	.st102{fill:#ABDCEB;}
	.st103{opacity:0.2;fill:#2B2C4D;}
	.st104{opacity:0.3;fill:url(#SVGID_94_);}
	.st105{opacity:0.3;fill:url(#SVGID_95_);}
	.st106{fill:#1E1212;}
	.st107{fill:#1E1212;stroke:#0C0D16;stroke-miterlimit:10;}
	.st108{opacity:0.3;fill:url(#SVGID_96_);stroke:#0C0D16;stroke-miterlimit:10;}
	.st109{opacity:5.000000e-02;fill:url(#SVGID_97_);stroke:#0C0D16;stroke-miterlimit:10;}
	.st110{fill:url(#SVGID_98_);stroke:#0C0D16;stroke-miterlimit:10;}
	.st111{fill:#3A556E;}
	.st112{opacity:0.3;fill:url(#SVGID_99_);}
	.st113{opacity:0.3;fill:url(#SVGID_100_);}
	.st114{fill:url(#SVGID_101_);}
	.st115{fill:url(#SVGID_102_);}
	.st116{fill:url(#SVGID_103_);}
	.st117{fill:url(#SVGID_104_);}
	.st118{fill:url(#SVGID_105_);}
	.st119{fill:url(#SVGID_106_);}
	.st120{fill:url(#SVGID_107_);}
	.st121{fill:url(#SVGID_108_);}
	.st122{fill:url(#SVGID_109_);}
	.st123{fill:url(#SVGID_110_);}
	.st124{fill:url(#SVGID_111_);}
	.st125{fill:url(#SVGID_112_);}
	.st126{fill:url(#SVGID_113_);}
	.st127{fill:url(#SVGID_114_);}
	.st128{fill:url(#SVGID_115_);}
	.st129{fill:url(#SVGID_116_);stroke:#0C0D16;stroke-miterlimit:10;}
	.st130{opacity:0.3;fill:url(#SVGID_117_);stroke:#0C0D16;stroke-miterlimit:10;}
	.st131{opacity:5.000000e-02;fill:url(#SVGID_118_);stroke:#0C0D16;stroke-miterlimit:10;}
	.st132{fill:url(#SVGID_119_);stroke:#0C0D16;stroke-miterlimit:10;}
	.st133{opacity:0.7;fill:url(#SVGID_120_);}
	.st134{opacity:0.15;fill:url(#SVGID_121_);}
	.st135{fill:url(#SVGID_122_);stroke:#0C0D16;stroke-miterlimit:10;}
	.st136{opacity:0.7;fill:url(#SVGID_123_);}
	.st137{opacity:0.15;fill:url(#SVGID_124_);}
	.st138{fill:url(#SVGID_125_);stroke:#0C0D16;stroke-miterlimit:10;}
	.st139{opacity:0.7;fill:url(#SVGID_126_);}
	.st140{opacity:0.15;fill:url(#SVGID_127_);}
</style>
<path class="st84" d="M0.5,333.4v-84.9c0,0,336.8-23.1,437.8-12.7c101,10.4,411.9,15,411.9,15s261.6-31.9,266.8-48.1
	c2.3-7.2,189.4-17.8,402.8-2.1c33.2,2.4,67.1,5.3,100.8,8.5c3.3,0.3,4.4,3.8,7.7,4.1c2.8,0.3,7.8-2.7,10.6-2.4
	c73.7,7.1,146.4,15.5,211.4,23.6c1.5,0.2,1.7,1.8,3.2,2c1.3,0.2,4-1.1,5.3-0.9c135.1,17,234.6,32.6,234.6,32.6l310.9-10.3l325.1,9.2
	l242.2,20.6v45.3L0.5,333.4z"/>
<g>
	<rect x="502.2" y="210.7" class="st84" width="0.6" height="27.5"/>
	<polygon class="st84" points="502.5,205.3 495.8,217 509.3,217 	"/>
	<polygon class="st84" points="502.5,209.4 493.2,225.6 511.9,225.6 	"/>
	<polygon class="st84" points="502.5,214.9 490.3,236.1 514.8,236.1 	"/>
</g>
<g>
	<rect x="486.5" y="179.2" class="st84" width="0.7" height="62.9"/>
	<polygon class="st84" points="486.9,166.9 478.3,193.6 495.5,193.6 	"/>
	<polygon class="st84" points="486.9,176.1 475,213.1 498.9,213.1 	"/>
	<polygon class="st84" points="486.9,188.7 471.3,237.1 502.5,237.1 	"/>
</g>
<g>
	<rect x="1354.1" y="164.9" class="st84" width="0.6" height="27.5"/>
	<polygon class="st84" points="1354.4,159.6 1347.7,171.3 1361.2,171.3 	"/>
	<polygon class="st84" points="1354.4,163.6 1345.1,179.8 1363.8,179.8 	"/>
	<polygon class="st84" points="1354.4,169.1 1342.2,190.3 1366.7,190.3 	"/>
</g>
<g>
	<rect x="1338.4" y="133.4" class="st84" width="0.7" height="62.9"/>
	<polygon class="st84" points="1338.8,121.1 1330.2,147.9 1347.4,147.9 	"/>
	<polygon class="st84" points="1338.8,130.4 1326.8,167.4 1350.7,167.4 	"/>
	<polygon class="st84" points="1338.8,143 1323.2,191.4 1354.4,191.4 	"/>
</g>
<g>
	<rect x="1303.3" y="152.5" class="st84" width="0.5" height="40.5"/>
	<polygon class="st84" points="1303.5,144.6 1298,161.8 1309.1,161.8 	"/>
	<polygon class="st84" points="1303.5,150.6 1295.8,174.4 1311.2,174.4 	"/>
	<polygon class="st84" points="1303.5,158.7 1293.5,189.9 1313.6,189.9 	"/>
</g>
<g>
	<rect x="1453.5" y="145.7" class="st84" width="1.1" height="53.4"/>
	<polygon class="st84" points="1454,135.3 1441.3,158 1466.8,158 	"/>
	<polygon class="st84" points="1454,143.1 1436.4,174.5 1471.7,174.5 	"/>
	<polygon class="st84" points="1454,153.8 1431,194.9 1477.1,194.9 	"/>
</g>
<g>
	<rect x="1423.9" y="79.9" class="st84" width="1.4" height="121.9"/>
	<polygon class="st84" points="1424.6,56.1 1408.4,107.9 1440.8,107.9 	"/>
	<polygon class="st84" points="1424.6,74 1402.1,145.7 1447.1,145.7 	"/>
	<polygon class="st84" points="1424.6,98.4 1395.2,192.3 1454,192.3 	"/>
</g>
<g>
	<rect x="1357.7" y="116.9" class="st84" width="0.9" height="78.5"/>
	<polygon class="st84" points="1358.1,101.6 1347.7,135 1368.6,135 	"/>
	<polygon class="st84" points="1358.1,113.1 1343.6,159.4 1372.6,159.4 	"/>
	<polygon class="st84" points="1358.1,128.9 1339.2,189.4 1377.1,189.4 	"/>
</g>
<g>
	<rect x="2086" y="237.7" class="st84" width="0.6" height="27.5"/>
	<polygon class="st84" points="2086.3,232.4 2079.6,244.1 2093.1,244.1 	"/>
	<polygon class="st84" points="2086.3,236.4 2077,252.6 2095.7,252.6 	"/>
	<polygon class="st84" points="2086.3,241.9 2074.1,263.1 2098.6,263.1 	"/>
</g>
<g>
	<rect x="2070.3" y="206.2" class="st84" width="0.7" height="62.9"/>
	<polygon class="st84" points="2070.7,194 2062.1,220.7 2079.3,220.7 	"/>
	<polygon class="st84" points="2070.7,203.2 2058.8,240.2 2082.7,240.2 	"/>
	<polygon class="st84" points="2070.7,215.8 2055.1,264.2 2086.3,264.2 	"/>
</g>
<g>
	<rect x="2035.2" y="225.3" class="st84" width="0.5" height="40.5"/>
	<polygon class="st84" points="2035.4,217.4 2029.9,234.7 2041,234.7 	"/>
	<polygon class="st84" points="2035.4,223.4 2027.7,247.2 2043.1,247.2 	"/>
	<polygon class="st84" points="2035.4,231.5 2025.4,262.7 2045.5,262.7 	"/>
</g>
<g>
	<rect x="2185.4" y="218.5" class="st84" width="1.1" height="53.4"/>
	<polygon class="st84" points="2186,208.1 2173.2,230.8 2198.7,230.8 	"/>
	<polygon class="st84" points="2186,215.9 2168.3,247.4 2203.6,247.4 	"/>
	<polygon class="st84" points="2186,226.6 2162.9,267.8 2209,267.8 	"/>
</g>
<g>
	<rect x="2155.8" y="152.7" class="st84" width="1.4" height="121.9"/>
	<polygon class="st84" points="2156.5,128.9 2140.3,180.7 2172.8,180.7 	"/>
	<polygon class="st84" points="2156.5,146.8 2134,218.5 2179,218.5 	"/>
	<polygon class="st84" points="2156.5,171.2 2127.1,265.1 2186,265.1 	"/>
</g>
<g>
	<rect x="2264.2" y="188.3" class="st84" width="1.6" height="78.1"/>
	<polygon class="st84" points="2265,173.1 2246.4,206.3 2283.7,206.3 	"/>
	<polygon class="st84" points="2265,184.6 2239.2,230.5 2290.8,230.5 	"/>
	<polygon class="st84" points="2265,200.2 2231.3,260.4 2298.8,260.4 	"/>
</g>
<g>
	<rect x="2321" y="132.1" class="st84" width="2.8" height="135.9"/>
	<polygon class="st84" points="2322.4,105.6 2289.9,163.4 2354.8,163.4 	"/>
	<polygon class="st84" points="2322.4,125.5 2277.5,205.5 2367.3,205.5 	"/>
	<polygon class="st84" points="2322.4,152.8 2263.6,257.5 2381.1,257.5 	"/>
</g>
<g>
	<rect x="2202" y="157.2" class="st84" width="1.4" height="121.9"/>
	<polygon class="st84" points="2202.7,133.4 2186.4,185.2 2218.9,185.2 	"/>
	<polygon class="st84" points="2202.7,151.3 2180.2,223 2225.2,223 	"/>
	<polygon class="st84" points="2202.7,175.7 2173.2,269.6 2232.1,269.6 	"/>
</g>
<g>
	<rect x="2089.6" y="189.7" class="st84" width="0.9" height="78.5"/>
	<polygon class="st84" points="2090.1,174.4 2079.6,207.8 2100.5,207.8 	"/>
	<polygon class="st84" points="2090.1,185.9 2075.6,232.2 2104.6,232.2 	"/>
	<polygon class="st84" points="2090.1,201.7 2071.1,262.2 2109,262.2 	"/>
</g>
<g>
	<rect x="2030.9" y="237.7" class="st84" width="0.6" height="27.5"/>
	<polygon class="st84" points="2031.2,232.4 2024.5,244.1 2038,244.1 	"/>
	<polygon class="st84" points="2031.2,236.4 2021.9,252.6 2040.6,252.6 	"/>
	<polygon class="st84" points="2031.2,241.9 2019,263.1 2043.5,263.1 	"/>
</g>
<g>
	<rect x="2015.2" y="206.2" class="st84" width="0.7" height="62.9"/>
	<polygon class="st84" points="2015.6,194 2007,220.7 2024.2,220.7 	"/>
	<polygon class="st84" points="2015.6,203.2 2003.7,240.2 2027.6,240.2 	"/>
	<polygon class="st84" points="2015.6,215.8 2000,264.2 2031.2,264.2 	"/>
</g>
<g>
	<rect x="1980.1" y="225.3" class="st84" width="0.5" height="40.5"/>
	<polygon class="st84" points="1980.3,217.4 1974.8,234.7 1985.9,234.7 	"/>
	<polygon class="st84" points="1980.3,223.4 1972.6,247.2 1988,247.2 	"/>
	<polygon class="st84" points="1980.3,231.5 1970.3,262.7 1990.4,262.7 	"/>
</g>
<g>
	<rect x="2130.3" y="218.5" class="st84" width="1.1" height="53.4"/>
	<polygon class="st84" points="2130.9,208.1 2118.1,230.8 2143.6,230.8 	"/>
	<polygon class="st84" points="2130.9,215.9 2113.2,247.4 2148.5,247.4 	"/>
	<polygon class="st84" points="2130.9,226.6 2107.8,267.8 2153.9,267.8 	"/>
</g>
<g>
	<rect x="2100.7" y="152.7" class="st84" width="1.4" height="121.9"/>
	<polygon class="st84" points="2101.4,128.9 2085.2,180.7 2117.7,180.7 	"/>
	<polygon class="st84" points="2101.4,146.8 2078.9,218.5 2123.9,218.5 	"/>
	<polygon class="st84" points="2101.4,171.2 2072,265.1 2130.9,265.1 	"/>
</g>
<g>
	<rect x="2034.5" y="189.7" class="st84" width="0.9" height="78.5"/>
	<polygon class="st84" points="2035,174.4 2024.5,207.8 2045.4,207.8 	"/>
	<polygon class="st84" points="2035,185.9 2020.4,232.2 2049.5,232.2 	"/>
	<polygon class="st84" points="2035,201.7 2016,262.2 2053.9,262.2 	"/>
</g>
<g>
	<rect x="2446" y="219.4" class="st84" width="0.5" height="40.5"/>
	<polygon class="st84" points="2446.3,211.5 2440.7,228.7 2451.8,228.7 	"/>
	<polygon class="st84" points="2446.3,217.4 2438.6,241.3 2454,241.3 	"/>
	<polygon class="st84" points="2446.3,225.6 2436.2,256.7 2456.3,256.7 	"/>
</g>
<g>
	<rect x="2426.1" y="200.3" class="st84" width="0.7" height="62.9"/>
	<polygon class="st84" points="2426.4,188 2417.8,214.7 2435,214.7 	"/>
	<polygon class="st84" points="2426.4,197.2 2414.5,234.2 2438.4,234.2 	"/>
	<polygon class="st84" points="2426.4,209.8 2410.8,258.2 2442,258.2 	"/>
</g>
<g>
	<rect x="2390.9" y="219.4" class="st84" width="0.5" height="40.5"/>
	<polygon class="st84" points="2391.2,211.5 2385.6,228.7 2396.7,228.7 	"/>
	<polygon class="st84" points="2391.2,217.4 2383.5,241.3 2398.8,241.3 	"/>
	<polygon class="st84" points="2391.2,225.6 2381.1,256.7 2401.2,256.7 	"/>
</g>
<g>
	<rect x="2445.3" y="183.8" class="st84" width="0.9" height="78.5"/>
	<polygon class="st84" points="2445.8,168.5 2435.3,201.8 2456.2,201.8 	"/>
	<polygon class="st84" points="2445.8,180 2431.3,226.2 2460.3,226.2 	"/>
	<polygon class="st84" points="2445.8,195.8 2426.8,256.2 2464.7,256.2 	"/>
</g>
<path class="st84" d="M942.6,243.2c-0.5-0.2-0.9-0.5-1.1-1c-1.5-2.2-8.6-9.3-8.1-9.8c0.2-0.2,1.8,1,3,2c1.7,1.4,2.8,2.5,2.8,2.5
	s-7.2-7.3-6.6-8c0.3-0.4,2.8,0.9,4.8,2.8c2.3,2.2,3.2,4.5,3.3,4.4c0.3-0.1-8.8-18.4-8.1-18.8c0.4-0.2,3.2,4,4.5,6
	c2.7,4.1,3.7,6.5,4.3,6.3c1-0.3-0.4-7.1,0-7.1c0.2,0,0.9,2.4,1.4,4.9c0.6,3,0.7,4.9,0.8,4.9c0.3,0-0.4-19.1,0.2-19.1
	c0.4,0,1.4,10.1,1.7,10.1c0.2,0-0.3-3.9,0.2-9.2c0.4-4.7,1.3-9.1,1.7-9c0.2,0,0.2,1.3,0,9.6c-0.2,6.4-0.2,9.6-0.1,9.6
	s0.3-2.7,1.1-6.9c0.6-2.9,1.5-6.8,1.8-6.7c0.3,0-0.1,6-1,11.5c-0.2,1.5-0.7,4-0.5,4c0.2,0,0.7-2.9,2.6-6.3c0.3-0.4,1.7-3,2.1-2.9
	c0.9,0.4-4.6,15.1-4.4,15.1c0.1,0,0.6-1.5,1.6-3.5c1.8-3.9,4.3-7.8,4.6-7.6c0.6,0.3-5.4,14.1-5.1,14.2s5.5-11.6,6-11.4
	c0.5,0.2-4.4,12.8-3.8,13.1c0.5,0.2,4.3-7.9,4.7-7.8c0.3,0.1-0.6,3.8-2.5,7.2c-0.6,1-1.1,1.9-1,1.9c0.2,0.1,4.8-6.6,5.2-6.3
	c0.2,0.2-0.9,2.8-2.8,5.3c-1.2,1.6-2.5,2.7-2.5,2.8s0.9-0.8,2.3-1.6c1.8-1.1,3.8-1.8,3.9-1.6c0.2,0.3-3.3,1.6-6.8,5.3
	c-1.4,1.5-1.8,2.1-2.8,2.3c-2.1,0.4-3.6-1.9-5.7-1.2C943.9,243.1,943.3,243.5,942.6,243.2z"/>
<path class="st84" d="M956.4,240.8c-0.3-0.1-0.5-0.3-0.6-0.6c-0.9-1.3-5-5.4-4.7-5.7c0.1-0.1,1,0.6,1.8,1.1c1,0.8,1.6,1.4,1.7,1.4
	c0,0-4.2-4.2-3.8-4.6c0.2-0.2,1.6,0.5,2.8,1.6c1.4,1.3,1.9,2.6,1.9,2.6c0.2-0.1-5.1-10.7-4.7-10.9c0.2-0.1,1.9,2.3,2.6,3.5
	c1.6,2.4,2.1,3.8,2.5,3.7c0.6-0.2-0.2-4.1,0-4.1c0.1,0,0.5,1.4,0.8,2.8c0.3,1.8,0.4,2.9,0.5,2.8c0.2,0-0.3-11.1,0.1-11.1
	c0.3,0,0.8,5.9,1,5.9c0.1,0-0.2-2.3,0.1-5.3c0.2-2.7,0.8-5.3,1-5.3c0.1,0,0.1,0.8,0,5.6c-0.1,3.7-0.1,5.6,0,5.6c0.1,0,0.2-1.6,0.7-4
	c0.3-1.7,0.9-3.9,1-3.9s-0.1,3.5-0.6,6.7c-0.1,0.9-0.4,2.3-0.3,2.3s0.4-1.7,1.5-3.6c0.1-0.3,1-1.8,1.2-1.7c0.5,0.2-2.7,8.8-2.5,8.8
	c0,0,0.4-0.9,0.9-2.1c1.1-2.3,2.5-4.5,2.7-4.4c0.4,0.2-3.1,8.2-3,8.2c0.2,0.1,3.2-6.8,3.5-6.6s-2.6,7.5-2.2,7.6
	c0.3,0.1,2.5-4.6,2.8-4.5c0.2,0.1-0.4,2.2-1.5,4.2c-0.3,0.6-0.6,1.1-0.6,1.1c0.1,0.1,2.8-3.8,3-3.7c0.1,0.1-0.5,1.7-1.6,3.1
	c-0.7,0.9-1.5,1.6-1.4,1.6c0,0.1,0.5-0.5,1.3-0.9c1-0.6,2.2-1.1,2.3-0.9c0.1,0.2-1.9,0.9-3.9,3.1c-0.8,0.9-1,1.2-1.6,1.3
	c-1.2,0.2-2.1-1.1-3.3-0.7C957.2,240.7,956.8,240.9,956.4,240.8z"/>
<path class="st84" d="M2478.8,263.9c-0.5-0.2-0.9-0.5-1.1-1c-1.5-2.2-8.6-9.3-8.1-9.8c0.2-0.2,1.8,1,3,2c1.7,1.4,2.8,2.5,2.8,2.5
	s-7.2-7.3-6.6-8c0.3-0.4,2.8,0.9,4.8,2.8c2.3,2.2,3.2,4.5,3.3,4.4c0.3-0.1-8.8-18.4-8.1-18.8c0.4-0.2,3.2,4,4.5,6
	c2.7,4.1,3.7,6.5,4.3,6.3c1-0.3-0.4-7.1,0-7.1c0.2,0,0.9,2.4,1.4,4.9c0.6,3,0.7,4.9,0.8,4.9c0.3,0-0.4-19.1,0.2-19.1
	c0.4,0,1.4,10.1,1.7,10.1c0.2,0-0.3-3.9,0.2-9.2c0.4-4.7,1.3-9.1,1.7-9c0.2,0,0.2,1.3,0,9.6c-0.2,6.4-0.2,9.6-0.1,9.6
	s0.3-2.7,1.1-6.9c0.6-2.9,1.5-6.8,1.8-6.7c0.3,0-0.1,6-1,11.5c-0.2,1.5-0.7,4-0.5,4s0.7-2.9,2.6-6.3c0.3-0.4,1.7-3,2.1-2.9
	c0.9,0.4-4.6,15.1-4.4,15.1c0.1,0,0.6-1.5,1.6-3.5c1.8-3.9,4.3-7.8,4.6-7.6c0.6,0.3-5.4,14.1-5.1,14.2c0.3,0.1,5.5-11.6,6-11.4
	s-4.4,12.8-3.8,13.1c0.5,0.2,4.3-7.9,4.7-7.8c0.3,0.1-0.6,3.8-2.5,7.2c-0.6,1-1.1,1.9-1,1.9c0.2,0.1,4.8-6.6,5.2-6.3
	c0.2,0.2-0.9,2.8-2.8,5.3c-1.2,1.6-2.5,2.7-2.5,2.8c0.1,0.1,0.9-0.8,2.3-1.6c1.8-1.1,3.8-1.8,3.9-1.6c0.2,0.3-3.3,1.6-6.8,5.3
	c-1.4,1.5-1.8,2.1-2.8,2.3c-2.1,0.4-3.6-1.9-5.7-1.2C2480.1,263.8,2479.5,264.2,2478.8,263.9z"/>
<path class="st84" d="M2397.7,261.4c-0.5-0.2-0.9-0.5-1.1-1c-1.5-2.2-8.6-9.3-8.1-9.8c0.2-0.2,1.8,1,3,2c1.7,1.4,2.8,2.5,2.8,2.5
	s-7.2-7.3-6.6-8c0.3-0.4,2.8,0.9,4.8,2.8c2.3,2.2,3.2,4.5,3.3,4.4c0.3-0.1-8.8-18.4-8.1-18.8c0.4-0.2,3.2,4,4.5,6
	c2.7,4.1,3.7,6.5,4.3,6.3c1-0.3-0.4-7.1,0-7.1c0.2,0,0.9,2.4,1.4,4.9c0.6,3,0.7,4.9,0.8,4.9c0.3,0-0.4-19.1,0.2-19.1
	c0.4,0,1.4,10.1,1.7,10.1c0.2,0-0.3-3.9,0.2-9.2c0.4-4.7,1.3-9.1,1.7-9c0.2,0,0.2,1.3,0,9.6c-0.2,6.4-0.2,9.6-0.1,9.6
	c0.2,0,0.3-2.7,1.1-6.9c0.6-2.9,1.5-6.8,1.8-6.7s-0.1,6-1,11.5c-0.2,1.5-0.7,4-0.5,4c0.2,0,0.7-2.9,2.6-6.3c0.3-0.4,1.7-3,2.1-2.9
	c0.9,0.4-4.6,15.1-4.4,15.1c0.1,0,0.6-1.5,1.6-3.5c1.8-3.9,4.3-7.8,4.6-7.6c0.6,0.3-5.4,14.1-5.1,14.2c0.3,0.1,5.5-11.6,6-11.4
	s-4.4,12.8-3.8,13.1c0.5,0.2,4.3-7.9,4.7-7.8c0.3,0.1-0.6,3.8-2.5,7.2c-0.6,1-1.1,1.9-1,1.9c0.2,0.1,4.8-6.6,5.2-6.3
	c0.2,0.2-0.9,2.8-2.8,5.3c-1.2,1.6-2.5,2.7-2.5,2.8c0.1,0.1,0.9-0.8,2.3-1.6c1.8-1.1,3.8-1.8,3.9-1.6c0.2,0.3-3.3,1.6-6.8,5.3
	c-1.4,1.5-1.8,2.1-2.8,2.3c-2.1,0.4-3.6-1.9-5.7-1.2C2399,261.2,2398.4,261.6,2397.7,261.4z"/>
<path class="st84" d="M2217.5,265.4c-1.4-0.6-2.6-1.6-3.3-3c-4.6-6.5-25.9-28-24.3-29.5c0.7-0.7,5.3,3,9.1,5.9
	c5.2,4.1,8.4,7.5,8.6,7.5c0.1,0-21.8-21.9-19.9-24.1c0.9-1.2,8.4,2.8,14.4,8.3c7,6.6,9.8,13.4,10.1,13.3
	c0.9-0.4-26.6-55.3-24.3-56.6c1.1-0.6,9.8,12.1,13.6,17.9c8.1,12.5,11.1,19.5,12.9,19c3-0.9-1.1-21.3-0.1-21.4
	c0.6-0.1,2.7,7.2,4.1,14.6c1.8,9.2,2.1,14.8,2.4,14.8c1,0-1.3-57.5,0.5-57.6c1.3-0.1,4.3,30.4,5.2,30.3c0.6,0-0.8-11.7,0.5-27.7
	c1.1-14.2,4-27.3,5-27.2c0.5,0,0.5,4-0.1,28.8c-0.5,19.3-0.7,28.8-0.3,28.8s0.9-8.2,3.4-20.7c1.7-8.8,4.6-20.4,5.4-20.2
	c0.9,0.1-0.4,18-3.1,34.7c-0.7,4.4-2,12-1.5,12s2.2-8.6,8-18.9c0.8-1.3,5.2-9.1,6.3-8.7c2.7,1.1-13.9,45.3-13.2,45.6
	c0.2,0.1,1.9-4.6,4.7-10.6c5.5-11.7,12.8-23.5,13.9-23c1.9,0.9-16.2,42.3-15.3,42.7c0.9,0.4,16.5-35,18-34.4
	c1.5,0.6-13.4,38.7-11.4,39.5c1.6,0.7,13.1-23.9,14.3-23.5c0.9,0.4-2,11.3-7.6,21.7c-1.7,3.1-3.4,5.7-3.1,5.8
	c0.6,0.4,14.4-19.9,15.7-19.1c0.7,0.5-2.7,8.6-8.3,15.9c-3.7,4.8-7.6,8.3-7.4,8.5c0.2,0.3,2.8-2.3,6.8-4.9
	c5.3-3.3,11.4-5.5,11.8-4.8c0.5,1-10,4.7-20.4,15.9c-4.2,4.6-5.3,6.2-8.3,6.8c-6.4,1.1-10.8-5.8-17.2-3.6
	C2221.4,264.9,2219.6,266.1,2217.5,265.4z"/>
</svg>
