<?xml version="1.0" encoding="utf-8"?>
<!-- Generator: Adobe Illustrator 22.0.1, SVG Export Plug-In . SVG Version: 6.00 Build 0)  -->
<svg version="1.1" id="Calque_1" xmlns="http://www.w3.org/2000/svg" xmlns:xlink="http://www.w3.org/1999/xlink" x="0px" y="0px"
	 viewBox="0 0 1704.3 174.1" style="enable-background:new 0 0 1704.3 174.1;" xml:space="preserve">
<style type="text/css">
	.st0{fill:#FFFFFF;}
	.st1{fill:url(#SVGID_1_);stroke:#0C0D16;stroke-miterlimit:10;}
	.st2{opacity:0.7;fill:url(#SVGID_2_);}
	.st3{opacity:0.1;fill:#608291;}
	.st4{opacity:0.15;fill:url(#SVGID_3_);}
	.st5{opacity:0.8;fill:url(#SVGID_4_);}
	.st6{opacity:0.8;fill:#1E2635;}
	.st7{opacity:0.8;fill:url(#SVGID_5_);}
	.st8{fill:url(#SVGID_6_);}
	.st9{fill:#1E2635;}
	.st10{opacity:0.8;fill:url(#SVGID_7_);}
	.st11{fill:url(#SVGID_8_);}
	.st12{fill:url(#SVGID_9_);}
	.st13{fill:url(#SVGID_10_);}
	.st14{fill:url(#SVGID_11_);}
	.st15{fill:url(#SVGID_12_);stroke:#0C0D16;stroke-miterlimit:10;}
	.st16{opacity:0.7;fill:url(#SVGID_13_);}
	.st17{opacity:0.15;fill:url(#SVGID_14_);}
	.st18{opacity:0.8;fill:url(#SVGID_15_);}
	.st19{opacity:0.8;fill:url(#SVGID_16_);}
	.st20{fill:url(#SVGID_17_);}
	.st21{fill:url(#SVGID_18_);}
	.st22{opacity:0.8;fill:url(#SVGID_19_);}
	.st23{fill:url(#SVGID_20_);}
	.st24{fill:url(#SVGID_21_);}
	.st25{fill:url(#SVGID_22_);stroke:#0C0D16;stroke-miterlimit:10;}
	.st26{opacity:0.7;fill:url(#SVGID_23_);}
	.st27{opacity:0.15;fill:url(#SVGID_24_);}
	.st28{opacity:0.4;fill:url(#SVGID_25_);}
	.st29{opacity:0.8;fill:url(#SVGID_26_);}
	.st30{opacity:0.8;fill:url(#SVGID_27_);}
	.st31{fill:url(#SVGID_28_);}
	.st32{opacity:0.8;fill:url(#SVGID_29_);}
	.st33{opacity:0.6;fill:url(#SVGID_30_);}
	.st34{fill:url(#SVGID_31_);}
	.st35{opacity:0.8;fill:url(#SVGID_32_);}
	.st36{fill:url(#SVGID_33_);}
	.st37{opacity:0.8;fill:url(#SVGID_34_);}
	.st38{fill:url(#SVGID_35_);}
	.st39{opacity:0.8;fill:url(#SVGID_36_);}
	.st40{opacity:0.6;fill:url(#SVGID_37_);}
	.st41{fill:url(#SVGID_38_);}
	.st42{fill:url(#SVGID_39_);}
	.st43{fill:url(#SVGID_40_);}
	.st44{fill:#151325;}
	.st45{fill:#201B3D;}
	.st46{fill:url(#SVGID_41_);stroke:#0C0D16;stroke-miterlimit:10;}
	.st47{opacity:0.7;fill:url(#SVGID_42_);}
	.st48{opacity:0.15;fill:url(#SVGID_43_);}
	.st49{opacity:0.8;fill:url(#SVGID_44_);}
	.st50{opacity:0.8;fill:url(#SVGID_45_);}
	.st51{fill:url(#SVGID_46_);}
	.st52{fill:url(#SVGID_47_);}
	.st53{opacity:0.8;fill:url(#SVGID_48_);}
	.st54{fill:url(#SVGID_49_);}
	.st55{fill:url(#SVGID_50_);}
	.st56{fill:url(#SVGID_51_);}
	.st57{fill:url(#SVGID_52_);stroke:#0C0D16;stroke-miterlimit:10;}
	.st58{opacity:0.7;fill:url(#SVGID_53_);}
	.st59{opacity:0.15;fill:url(#SVGID_54_);}
	.st60{opacity:0.8;fill:url(#SVGID_55_);}
	.st61{opacity:0.8;fill:url(#SVGID_56_);}
	.st62{fill:url(#SVGID_57_);}
	.st63{opacity:0.8;fill:url(#SVGID_58_);}
	.st64{fill:url(#SVGID_59_);}
	.st65{fill:url(#SVGID_60_);}
	.st66{fill:url(#SVGID_61_);}
	.st67{fill:url(#SVGID_62_);}
	.st68{opacity:0.8;fill:url(#SVGID_63_);}
	.st69{opacity:0.8;fill:url(#SVGID_64_);}
	.st70{fill:url(#SVGID_65_);}
	.st71{fill:url(#SVGID_66_);}
	.st72{fill:url(#SVGID_67_);}
	.st73{fill:url(#SVGID_68_);}
	.st74{opacity:0.8;fill:url(#SVGID_69_);}
	.st75{opacity:0.8;fill:url(#SVGID_70_);}
	.st76{fill:url(#SVGID_71_);}
	.st77{fill:url(#SVGID_72_);}
	.st78{fill:url(#SVGID_73_);}
	.st79{opacity:0.8;fill:url(#SVGID_74_);}
	.st80{opacity:0.8;fill:url(#SVGID_75_);}
	.st81{fill:url(#SVGID_76_);}
	.st82{fill:url(#SVGID_77_);}
	.st83{fill:url(#SVGID_78_);}
	.st84{fill:#0C0D16;stroke:#0C0D16;stroke-miterlimit:10;}
	.st85{fill:#26284A;}
	.st86{fill:url(#SVGID_79_);}
	.st87{fill:url(#SVGID_80_);}
	.st88{fill:url(#SVGID_81_);}
	.st89{fill:url(#SVGID_82_);}
	.st90{fill:url(#SVGID_83_);}
	.st91{fill:url(#SVGID_84_);}
	.st92{fill:url(#SVGID_85_);}
	.st93{fill:url(#SVGID_86_);}
	.st94{fill:url(#SVGID_87_);}
	.st95{fill:url(#SVGID_88_);}
	.st96{fill:url(#SVGID_89_);}
	.st97{fill:url(#SVGID_90_);}
	.st98{fill:url(#SVGID_91_);}
	.st99{fill:url(#SVGID_92_);}
	.st100{fill:url(#SVGID_93_);}
	.st101{fill:#9BD5E4;}
	.st102{fill:#ABDCEB;}
	.st103{opacity:0.2;fill:#2B2C4D;}
	.st104{opacity:0.3;fill:url(#SVGID_94_);}
	.st105{opacity:0.3;fill:url(#SVGID_95_);}
	.st106{fill:#1E1212;}
	.st107{fill:#1E1212;stroke:#0C0D16;stroke-miterlimit:10;}
	.st108{opacity:0.3;fill:url(#SVGID_96_);stroke:#0C0D16;stroke-miterlimit:10;}
	.st109{opacity:5.000000e-02;fill:url(#SVGID_97_);stroke:#0C0D16;stroke-miterlimit:10;}
	.st110{fill:url(#SVGID_98_);stroke:#0C0D16;stroke-miterlimit:10;}
	.st111{fill:#3A556E;}
	.st112{opacity:0.3;fill:url(#SVGID_99_);}
	.st113{opacity:0.3;fill:url(#SVGID_100_);}
	.st114{fill:url(#SVGID_101_);}
	.st115{fill:url(#SVGID_102_);}
	.st116{fill:url(#SVGID_103_);}
	.st117{fill:url(#SVGID_104_);}
	.st118{fill:url(#SVGID_105_);}
	.st119{fill:url(#SVGID_106_);}
	.st120{fill:url(#SVGID_107_);}
	.st121{fill:url(#SVGID_108_);}
	.st122{fill:url(#SVGID_109_);}
	.st123{fill:url(#SVGID_110_);}
	.st124{fill:url(#SVGID_111_);}
	.st125{fill:url(#SVGID_112_);}
	.st126{fill:url(#SVGID_113_);}
	.st127{fill:url(#SVGID_114_);}
	.st128{fill:url(#SVGID_115_);}
	.st129{fill:url(#SVGID_116_);stroke:#0C0D16;stroke-miterlimit:10;}
	.st130{opacity:0.3;fill:url(#SVGID_117_);stroke:#0C0D16;stroke-miterlimit:10;}
	.st131{opacity:5.000000e-02;fill:url(#SVGID_118_);stroke:#0C0D16;stroke-miterlimit:10;}
	.st132{fill:url(#SVGID_119_);stroke:#0C0D16;stroke-miterlimit:10;}
	.st133{opacity:0.7;fill:url(#SVGID_120_);}
	.st134{opacity:0.15;fill:url(#SVGID_121_);}
	.st135{fill:url(#SVGID_122_);stroke:#0C0D16;stroke-miterlimit:10;}
	.st136{opacity:0.7;fill:url(#SVGID_123_);}
	.st137{opacity:0.15;fill:url(#SVGID_124_);}
	.st138{fill:url(#SVGID_125_);stroke:#0C0D16;stroke-miterlimit:10;}
	.st139{opacity:0.7;fill:url(#SVGID_126_);}
	.st140{opacity:0.15;fill:url(#SVGID_127_);}
</style>
<g>
	<g>
		<rect x="697.9" y="67.7" class="st84" width="0.5" height="35.6"/>
		<polygon class="st84" points="698.2,60.8 692.2,75.9 704.1,75.9 		"/>
		<polygon class="st84" points="698.2,66 689.9,86.9 706.4,86.9 		"/>
		<polygon class="st84" points="698.2,73.1 687.3,100.5 709,100.5 		"/>
	</g>
	<g>
		<rect x="719.8" y="63.2" class="st84" width="0.5" height="38.2"/>
		<polygon class="st84" points="720,57.1 714.1,70.5 726,70.5 		"/>
		<polygon class="st84" points="720,61.7 711.8,80.2 728.3,80.2 		"/>
		<polygon class="st84" points="720,68 709.2,92.2 730.8,92.2 		"/>
		<polygon class="st84" points="719.8,74.9 709,99.1 730.6,99.1 		"/>
	</g>
	<g>
		<rect x="1582.4" y="79.1" class="st84" width="0.6" height="27.5"/>
		<polygon class="st84" points="1582.7,73.8 1576,85.5 1589.5,85.5 		"/>
		<polygon class="st84" points="1582.7,77.8 1573.4,94 1592.1,94 		"/>
		<polygon class="st84" points="1582.7,83.3 1570.5,104.6 1595,104.6 		"/>
	</g>
	<g>
		<rect x="1566.7" y="47.6" class="st84" width="0.7" height="62.9"/>
		<polygon class="st84" points="1567.1,35.4 1558.5,62.1 1575.7,62.1 		"/>
		<polygon class="st84" points="1567.1,44.6 1555.2,81.6 1579.1,81.6 		"/>
		<polygon class="st84" points="1567.1,57.2 1551.5,105.6 1582.7,105.6 		"/>
	</g>
	<g>
		<rect x="1660.9" y="39.9" class="st84" width="0.7" height="62.9"/>
		<polygon class="st84" points="1661.3,27.6 1652.7,54.3 1669.9,54.3 		"/>
		<polygon class="st84" points="1661.3,36.8 1649.3,73.8 1673.2,73.8 		"/>
		<polygon class="st84" points="1661.3,49.4 1645.7,97.9 1676.9,97.9 		"/>
	</g>
	<g>
		<rect x="1625.8" y="59" class="st84" width="0.5" height="40.5"/>
		<polygon class="st84" points="1626,51.1 1620.5,68.3 1631.6,68.3 		"/>
		<polygon class="st84" points="1626,57 1618.3,80.9 1633.7,80.9 		"/>
		<polygon class="st84" points="1626,65.2 1615.9,96.4 1636.1,96.4 		"/>
	</g>
	<g>
		<rect x="1680.2" y="23.4" class="st84" width="0.9" height="78.5"/>
		<polygon class="st84" points="1680.6,8.1 1670.2,41.5 1691.1,41.5 		"/>
		<polygon class="st84" points="1680.6,19.6 1666.1,65.8 1695.1,65.8 		"/>
		<polygon class="st84" points="1680.6,35.4 1661.7,95.8 1699.6,95.8 		"/>
	</g>
	<path class="st84" d="M0.5,101l36.9-3.4l2.5,5.6l14.9-7.2l44.8-4.1c16.2-1.5,31.3-8.5,43-19.7c6.2-6,14.2-12.7,24-18.9
		c2.2-1.4,1.8,2.7,4.2,1.4c2.2-1.2,7.2-7.9,9.6-9.1c19.2-9.2,43.1-15,71.2-10.3c18,3,34.6,11.4,48,23.9
		c16.2,15.2,31.2,19.1,43.2,18.4c12.9-0.7,24.7-7.7,31.8-18.5c1.7-2.6,3.9-5.9,6.6-9.7c1.5-2.1,4.3-1.3,6.1-3.7
		c1.6-2.1,2.3-7.3,4.2-9.5c22.2-26.1,61.1-55.6,111.6-17.5c3.8,2.8,7.5,5.6,11.1,8.3c3.1,2.3-2.9,3.8,0.1,6
		c3.3,2.4,15.5,5.4,18.6,7.7c63.9,46,94.6,60.4,94.6,60.4l195.6,0l106.2,14.2l774.6-22.4v80.7H0.5V101z"/>
	<path class="st84" d="M332.1,81.5c-0.6-3.9,1.4-13.4,1.4-13.5c0-0.2,0-0.4-0.1-0.5c-0.1-0.1-0.2-0.1-0.3,0
		c-0.9,1.2-2.4,5.5-3.2,8.2c0.3-2.4,1-5.7,1.3-7.2c0-0.2,0-0.4-0.1-0.6c-0.1-0.1-0.3-0.1-0.4,0.1c-1,1.6-2.1,5.1-2.7,7.2
		c0.2-5.2,1.9-14.4,1.9-14.5c0-0.2,0-0.5-0.1-0.6c-0.1-0.1-0.3,0-0.4,0.2c-1.7,3.2-2.9,8.7-3.6,12.5c-0.2-4.9-1.2-9.7-1.3-9.9
		c-0.1-0.2-0.2-0.3-0.3-0.2c-0.1,0.1-0.2,0.3-0.2,0.6c0.3,3.7-0.4,9.5-0.9,13.4c-0.3-4.8-1.4-10.5-1.4-10.8c0-0.2-0.2-0.4-0.4-0.3
		c-0.2,0.1-0.2,0.4-0.2,0.6c0.4,2.6-0.2,7.2-0.6,9.7c-0.4-1.7-1.2-3.8-1.5-4.6c-0.1-0.2-0.2-0.3-0.4-0.1c-0.1,0.1-0.2,0.4-0.2,0.6
		c0.6,3.3-0.3,8.2-0.4,8.2c0,0.1,0,0.3,0,0.4c0,0.1,0.1,0.2,0.2,0.2l13.5,1.4c0.1,0,0.2-0.1,0.3-0.2
		C332.1,81.9,332.2,81.7,332.1,81.5z"/>
	<path class="st84" d="M348.4,80.3c-1.8-3.5-3.1-13.1-3.1-13.2c0-0.2-0.1-0.4-0.3-0.5c-0.1-0.1-0.3,0-0.3,0.2
		c-0.5,1.5-0.5,6-0.4,8.8c-0.5-2.3-0.9-5.7-1.1-7.2c0-0.2-0.1-0.4-0.3-0.5c-0.1-0.1-0.3,0-0.3,0.2c-0.4,1.8-0.3,5.5-0.2,7.7
		c-1.5-5-2.9-14.3-2.9-14.4c0-0.2-0.2-0.4-0.3-0.5c-0.1,0-0.3,0.1-0.3,0.3c-0.5,3.6,0.1,9.2,0.7,13c-1.8-4.6-4.3-8.7-4.4-9
		c-0.1-0.2-0.3-0.2-0.4-0.1c-0.1,0.1-0.1,0.4,0,0.6c1.5,3.4,2.7,9.1,3.5,13c-1.8-4.5-4.7-9.4-4.9-9.7c-0.1-0.2-0.3-0.3-0.4-0.1
		c-0.1,0.1-0.1,0.4,0,0.7c1.2,2.3,2.1,6.9,2.6,9.4c-0.9-1.5-2.3-3.2-2.9-3.9c-0.1-0.2-0.3-0.2-0.4,0c-0.1,0.2-0.1,0.4,0,0.6
		c1.6,2.9,2.3,7.9,2.3,7.9c0,0.1,0.1,0.3,0.2,0.4c0.1,0.1,0.2,0.1,0.3,0.1l13.2-3.1c0.1,0,0.2-0.1,0.2-0.3
		C348.5,80.6,348.5,80.4,348.4,80.3z"/>
	<path class="st84" d="M358,80.7c-1.1-3.8-0.3-13.5-0.3-13.6c0-0.2,0-0.4-0.2-0.5c-0.1-0.1-0.3-0.1-0.3,0.1
		c-0.8,1.3-1.7,5.8-2.2,8.5c0-2.4,0.3-5.8,0.4-7.3c0-0.2-0.1-0.4-0.2-0.5c-0.1-0.1-0.3,0-0.4,0.1c-0.8,1.7-1.4,5.3-1.8,7.5
		c-0.5-5.2,0.1-14.5,0.1-14.6c0-0.2-0.1-0.5-0.2-0.5c-0.1-0.1-0.3,0-0.3,0.2c-1.3,3.4-1.8,9-2,12.9c-0.8-4.9-2.4-9.4-2.5-9.7
		c-0.1-0.2-0.2-0.3-0.4-0.2c-0.1,0.1-0.2,0.4-0.1,0.6c0.8,3.6,0.8,9.5,0.7,13.4c-0.9-4.8-2.7-10.2-2.8-10.5
		c-0.1-0.2-0.3-0.3-0.4-0.2c-0.1,0.1-0.2,0.4-0.1,0.6c0.7,2.5,0.7,7.2,0.6,9.7c-0.6-1.6-1.6-3.6-2-4.4c-0.1-0.2-0.3-0.2-0.4-0.1
		c-0.1,0.1-0.2,0.4-0.1,0.6c1,3.2,0.7,8.2,0.7,8.2c0,0.1,0,0.3,0.1,0.4c0.1,0.1,0.1,0.2,0.2,0.2l13.6-0.3c0.1,0,0.2-0.1,0.2-0.2
		C358,81.1,358,80.9,358,80.7z"/>
</g>
</svg>
