<?xml version="1.0" encoding="utf-8"?>
<!-- Generator: Adobe Illustrator 22.0.1, SVG Export Plug-In . SVG Version: 6.00 Build 0)  -->
<svg version="1.1" id="Calque_1" xmlns="http://www.w3.org/2000/svg" xmlns:xlink="http://www.w3.org/1999/xlink" x="0px" y="0px"
	 viewBox="0 0 1168.6 172.3" style="enable-background:new 0 0 1168.6 172.3;" xml:space="preserve">
<style type="text/css">
	.st0{fill:#FFFFFF;}
	.st1{fill:url(#SVGID_1_);stroke:#0C0D16;stroke-miterlimit:10;}
	.st2{opacity:0.7;fill:url(#SVGID_2_);}
	.st3{opacity:0.1;fill:#608291;}
	.st4{opacity:0.15;fill:url(#SVGID_3_);}
	.st5{opacity:0.8;fill:url(#SVGID_4_);}
	.st6{opacity:0.8;fill:#1E2635;}
	.st7{opacity:0.8;fill:url(#SVGID_5_);}
	.st8{fill:url(#SVGID_6_);}
	.st9{fill:#1E2635;}
	.st10{opacity:0.8;fill:url(#SVGID_7_);}
	.st11{fill:url(#SVGID_8_);}
	.st12{fill:url(#SVGID_9_);}
	.st13{fill:url(#SVGID_10_);}
	.st14{fill:url(#SVGID_11_);}
	.st15{fill:url(#SVGID_12_);stroke:#0C0D16;stroke-miterlimit:10;}
	.st16{opacity:0.7;fill:url(#SVGID_13_);}
	.st17{opacity:0.15;fill:url(#SVGID_14_);}
	.st18{opacity:0.8;fill:url(#SVGID_15_);}
	.st19{opacity:0.8;fill:url(#SVGID_16_);}
	.st20{fill:url(#SVGID_17_);}
	.st21{fill:url(#SVGID_18_);}
	.st22{opacity:0.8;fill:url(#SVGID_19_);}
	.st23{fill:url(#SVGID_20_);}
	.st24{fill:url(#SVGID_21_);}
	.st25{fill:url(#SVGID_22_);stroke:#0C0D16;stroke-miterlimit:10;}
	.st26{opacity:0.7;fill:url(#SVGID_23_);}
	.st27{opacity:0.15;fill:url(#SVGID_24_);}
	.st28{opacity:0.4;fill:url(#SVGID_25_);}
	.st29{opacity:0.8;fill:url(#SVGID_26_);}
	.st30{opacity:0.8;fill:url(#SVGID_27_);}
	.st31{fill:url(#SVGID_28_);}
	.st32{opacity:0.8;fill:url(#SVGID_29_);}
	.st33{opacity:0.6;fill:url(#SVGID_30_);}
	.st34{fill:url(#SVGID_31_);}
	.st35{opacity:0.8;fill:url(#SVGID_32_);}
	.st36{fill:url(#SVGID_33_);}
	.st37{opacity:0.8;fill:url(#SVGID_34_);}
	.st38{fill:url(#SVGID_35_);}
	.st39{opacity:0.8;fill:url(#SVGID_36_);}
	.st40{opacity:0.6;fill:url(#SVGID_37_);}
	.st41{fill:url(#SVGID_38_);}
	.st42{fill:url(#SVGID_39_);}
	.st43{fill:url(#SVGID_40_);}
	.st44{fill:#151325;}
	.st45{fill:#201B3D;}
	.st46{fill:url(#SVGID_41_);stroke:#0C0D16;stroke-miterlimit:10;}
	.st47{opacity:0.7;fill:url(#SVGID_42_);}
	.st48{opacity:0.15;fill:url(#SVGID_43_);}
	.st49{opacity:0.8;fill:url(#SVGID_44_);}
	.st50{opacity:0.8;fill:url(#SVGID_45_);}
	.st51{fill:url(#SVGID_46_);}
	.st52{fill:url(#SVGID_47_);}
	.st53{opacity:0.8;fill:url(#SVGID_48_);}
	.st54{fill:url(#SVGID_49_);}
	.st55{fill:url(#SVGID_50_);}
	.st56{fill:url(#SVGID_51_);}
	.st57{fill:url(#SVGID_52_);stroke:#0C0D16;stroke-miterlimit:10;}
	.st58{opacity:0.7;fill:url(#SVGID_53_);}
	.st59{opacity:0.15;fill:url(#SVGID_54_);}
	.st60{opacity:0.8;fill:url(#SVGID_55_);}
	.st61{opacity:0.8;fill:url(#SVGID_56_);}
	.st62{fill:url(#SVGID_57_);}
	.st63{opacity:0.8;fill:url(#SVGID_58_);}
	.st64{fill:url(#SVGID_59_);}
	.st65{fill:url(#SVGID_60_);}
	.st66{fill:url(#SVGID_61_);}
	.st67{fill:url(#SVGID_62_);}
	.st68{opacity:0.8;fill:url(#SVGID_63_);}
	.st69{opacity:0.8;fill:url(#SVGID_64_);}
	.st70{fill:url(#SVGID_65_);}
	.st71{fill:url(#SVGID_66_);}
	.st72{fill:url(#SVGID_67_);}
	.st73{fill:url(#SVGID_68_);}
	.st74{opacity:0.8;fill:url(#SVGID_69_);}
	.st75{opacity:0.8;fill:url(#SVGID_70_);}
	.st76{fill:url(#SVGID_71_);}
	.st77{fill:url(#SVGID_72_);}
	.st78{fill:url(#SVGID_73_);}
	.st79{opacity:0.8;fill:url(#SVGID_74_);}
	.st80{opacity:0.8;fill:url(#SVGID_75_);}
	.st81{fill:url(#SVGID_76_);}
	.st82{fill:url(#SVGID_77_);}
	.st83{fill:url(#SVGID_78_);}
	.st84{fill:#0C0D16;stroke:#0C0D16;stroke-miterlimit:10;}
	.st85{fill:#26284A;}
	.st86{fill:url(#SVGID_79_);}
	.st87{fill:url(#SVGID_80_);}
	.st88{fill:url(#SVGID_81_);}
	.st89{fill:url(#SVGID_82_);}
	.st90{fill:url(#SVGID_83_);}
	.st91{fill:url(#SVGID_84_);}
	.st92{fill:url(#SVGID_85_);}
	.st93{fill:url(#SVGID_86_);}
	.st94{fill:url(#SVGID_87_);}
	.st95{fill:url(#SVGID_88_);}
	.st96{fill:url(#SVGID_89_);}
	.st97{fill:url(#SVGID_90_);}
	.st98{fill:url(#SVGID_91_);}
	.st99{fill:url(#SVGID_92_);}
	.st100{fill:url(#SVGID_93_);}
	.st101{fill:#9BD5E4;}
	.st102{fill:#ABDCEB;}
	.st103{opacity:0.2;fill:#2B2C4D;}
	.st104{opacity:0.3;fill:url(#SVGID_94_);}
	.st105{opacity:0.3;fill:url(#SVGID_95_);}
	.st106{fill:#1E1212;}
	.st107{fill:#1E1212;stroke:#0C0D16;stroke-miterlimit:10;}
	.st108{opacity:0.3;fill:url(#SVGID_96_);stroke:#0C0D16;stroke-miterlimit:10;}
	.st109{opacity:5.000000e-02;fill:url(#SVGID_97_);stroke:#0C0D16;stroke-miterlimit:10;}
	.st110{fill:url(#SVGID_98_);stroke:#0C0D16;stroke-miterlimit:10;}
	.st111{fill:#3A556E;}
	.st112{opacity:0.3;fill:url(#SVGID_99_);}
	.st113{opacity:0.3;fill:url(#SVGID_100_);}
	.st114{fill:url(#SVGID_101_);}
	.st115{fill:url(#SVGID_102_);}
	.st116{fill:url(#SVGID_103_);}
	.st117{fill:url(#SVGID_104_);}
	.st118{fill:url(#SVGID_105_);}
	.st119{fill:url(#SVGID_106_);}
	.st120{fill:url(#SVGID_107_);}
	.st121{fill:url(#SVGID_108_);}
	.st122{fill:url(#SVGID_109_);}
	.st123{fill:url(#SVGID_110_);}
	.st124{fill:url(#SVGID_111_);}
	.st125{fill:url(#SVGID_112_);}
	.st126{fill:url(#SVGID_113_);}
	.st127{fill:url(#SVGID_114_);}
	.st128{fill:url(#SVGID_115_);}
	.st129{fill:url(#SVGID_116_);stroke:#0C0D16;stroke-miterlimit:10;}
	.st130{opacity:0.3;fill:url(#SVGID_117_);stroke:#0C0D16;stroke-miterlimit:10;}
	.st131{opacity:5.000000e-02;fill:url(#SVGID_118_);stroke:#0C0D16;stroke-miterlimit:10;}
	.st132{fill:url(#SVGID_119_);stroke:#0C0D16;stroke-miterlimit:10;}
	.st133{opacity:0.7;fill:url(#SVGID_120_);}
	.st134{opacity:0.15;fill:url(#SVGID_121_);}
	.st135{fill:url(#SVGID_122_);stroke:#0C0D16;stroke-miterlimit:10;}
	.st136{opacity:0.7;fill:url(#SVGID_123_);}
	.st137{opacity:0.15;fill:url(#SVGID_124_);}
	.st138{fill:url(#SVGID_125_);stroke:#0C0D16;stroke-miterlimit:10;}
	.st139{opacity:0.7;fill:url(#SVGID_126_);}
	.st140{opacity:0.15;fill:url(#SVGID_127_);}
</style>
<path class="st84" d="M750.1,107.8c0,0,6.8,3.3,8,4.5c2.3,0,11.6,1.3,11.6,1.3s23.7-6.9,23.9-6.6c2.2,0,31.2,0,31.2,0l4.8,2.5
	l8.7-2.3l36.9,0.5L918,113l146.4-23.9l-1.5-8.8c0,0,8.5-4.5,13.1-7.1c2.7-1.6-13.6,4.3-19.5,1.7c-3-1.3-17.9-29.8-17.9-29.8
	l-4.1-8.5c0,0,113.3-8.3,123.7-19.7s9.9,131.1,9.9,131.1l0,23.3h-418V107.8z"/>
<path class="st85" d="M1034.3,36.5c0,0-18.3-25.9,110.9-36.5c15.4,13.2,15.4,16.2,15.4,16.2S1166,26.9,1034.3,36.5z"/>
<g>
	<rect x="535.8" y="88.2" class="st84" width="0.6" height="27.5"/>
	<polygon class="st84" points="536.1,82.9 529.3,94.6 542.8,94.6 	"/>
	<polygon class="st84" points="536.1,86.9 526.7,103.1 545.5,103.1 	"/>
	<polygon class="st84" points="536.1,92.4 523.8,113.6 548.3,113.6 	"/>
</g>
<g>
	<rect x="955.3" y="78.2" class="st84" width="0.5" height="35.6"/>
	<polygon class="st84" points="955.6,71.2 949.6,86.3 961.6,86.3 	"/>
	<polygon class="st84" points="955.6,76.4 947.3,97.4 963.8,97.4 	"/>
	<polygon class="st84" points="955.6,83.6 944.8,111 966.4,111 	"/>
</g>
<g>
	<rect x="976.9" y="76.5" class="st84" width="0.5" height="31.4"/>
	<polygon class="st84" points="977.2,70.3 971.2,83.7 983.2,83.7 	"/>
	<polygon class="st84" points="977.2,74.9 968.9,93.4 985.5,93.4 	"/>
	<polygon class="st84" points="977.2,81.2 966.4,105.4 988,105.4 	"/>
</g>
<g>
	<rect x="519.8" y="53.5" class="st84" width="0.7" height="62.9"/>
	<polygon class="st84" points="520.2,41.2 511.6,67.9 528.8,67.9 	"/>
	<polygon class="st84" points="520.2,50.4 508.2,87.5 532.1,87.5 	"/>
	<polygon class="st84" points="520.2,63.1 504.6,111.5 535.8,111.5 	"/>
</g>
<g>
	<rect x="579.8" y="104.8" class="st84" width="0.2" height="9.9"/>
	<polygon class="st84" points="579.9,102.8 577.4,107 582.3,107 	"/>
	<polygon class="st84" points="579.9,104.3 576.5,110.1 583.2,110.1 	"/>
	<polygon class="st84" points="579.9,106.3 575.5,113.9 584.3,113.9 	"/>
</g>
<g>
	<rect x="574" y="92.1" class="st84" width="0.3" height="22.6"/>
	<polygon class="st84" points="574.2,87.7 571.1,97.3 577.3,97.3 	"/>
	<polygon class="st84" points="574.2,91 569.9,104.3 578.5,104.3 	"/>
	<polygon class="st84" points="574.2,95.5 568.5,112.9 579.8,112.9 	"/>
</g>
<path class="st84" d="M750.1,171.3L0.5,171.8V87.4c0,0,25.5,1.8,64.2,5.5c2.8,0.3-1,6.7,1.9,7c2.6,0.3,11.8-5.7,14.4-5.4
	c44,4.4,100.5,11,155.3,19.8c58.5,9.4,515.4-5.2,515.4-5.2L750.1,171.3z"/>
<path class="st84" d="M180.2,107.8c-0.7-2.7,1.3-8.8,1.3-8.9c0-0.1,0-0.3-0.1-0.4c-0.1-0.1-0.3-0.1-0.4,0c-1,0.7-2.5,3.4-3.4,5.1
	c0.3-1.5,1-3.7,1.3-4.6c0-0.1,0-0.3-0.1-0.4c-0.1-0.1-0.3-0.1-0.4,0c-1,1-2.2,3.2-2.8,4.6c0.1-3.5,1.9-9.4,1.9-9.5
	c0-0.1,0-0.3-0.2-0.4c-0.1-0.1-0.3,0-0.4,0.1c-1.8,2-3,5.5-3.7,8c-0.3-3.3-1.5-6.5-1.6-6.7c-0.1-0.2-0.2-0.2-0.4-0.2
	c-0.2,0-0.3,0.2-0.2,0.4c0.4,2.5-0.2,6.3-0.8,8.8c-0.4-3.2-1.7-7.1-1.8-7.3c-0.1-0.2-0.2-0.3-0.4-0.2c-0.2,0.1-0.3,0.2-0.2,0.4
	c0.5,1.8-0.1,4.8-0.5,6.4c-0.5-1.2-1.3-2.6-1.7-3.2c-0.1-0.1-0.3-0.2-0.4-0.1c-0.2,0.1-0.2,0.2-0.2,0.4c0.7,2.2-0.2,5.4-0.3,5.5
	c0,0.1,0,0.2,0,0.3c0.1,0.1,0.1,0.1,0.2,0.1l14.8,2.2c0.1,0,0.2,0,0.3-0.1C180.2,108,180.2,107.9,180.2,107.8z"/>
<path class="st84" d="M1012.2,99.7c-0.9-1.6-0.6-5.7-0.6-5.7c0-0.1,0-0.2-0.1-0.2c-0.1,0-0.2,0-0.2,0.1c-0.5,0.6-1.1,2.5-1.4,3.7
	c-0.1-1,0-2.5,0.1-3.1c0-0.1,0-0.2-0.1-0.2c-0.1,0-0.2,0-0.2,0.1c-0.5,0.8-0.9,2.3-1.1,3.3c-0.5-2.2-0.3-6.1-0.3-6.2
	c0-0.1-0.1-0.2-0.2-0.2c-0.1,0-0.2,0-0.2,0.1c-0.8,1.5-1,3.9-1.1,5.6c-0.7-2-2-3.8-2.1-3.9c-0.1-0.1-0.2-0.1-0.3-0.1
	c-0.1,0.1-0.1,0.2-0.1,0.3c0.7,1.5,0.8,4,0.9,5.6c-0.7-2-2.2-4.1-2.3-4.3c-0.1-0.1-0.2-0.1-0.3-0.1c-0.1,0.1-0.1,0.2-0.1,0.3
	c0.6,1,0.7,3,0.7,4.1c-0.5-0.7-1.3-1.4-1.6-1.7c-0.1-0.1-0.2-0.1-0.3,0c-0.1,0.1-0.1,0.2,0,0.3c0.8,1.3,0.7,3.4,0.7,3.4
	c0,0.1,0,0.1,0.1,0.2c0,0,0.1,0.1,0.2,0.1l9.7-1c0.1,0,0.1,0,0.2-0.1C1012.3,99.8,1012.3,99.7,1012.2,99.7z"/>
<path class="st84" d="M1019,97.7c-0.9-1.6-0.6-5.7-0.6-5.7c0-0.1,0-0.2-0.1-0.2c-0.1,0-0.2,0-0.2,0.1c-0.5,0.6-1.1,2.5-1.4,3.7
	c-0.1-1,0-2.5,0.1-3.1c0-0.1,0-0.2-0.1-0.2c-0.1,0-0.2,0-0.2,0.1c-0.5,0.8-0.9,2.3-1.1,3.3c-0.5-2.2-0.3-6.1-0.3-6.2
	c0-0.1-0.1-0.2-0.2-0.2c-0.1,0-0.2,0-0.2,0.1c-0.8,1.5-1,3.9-1.1,5.6c-0.7-2-2-3.8-2.1-3.9c-0.1-0.1-0.2-0.1-0.3-0.1
	c-0.1,0.1-0.1,0.2-0.1,0.3c0.7,1.5,0.8,4,0.9,5.6c-0.7-2-2.2-4.1-2.3-4.3c-0.1-0.1-0.2-0.1-0.3-0.1c-0.1,0.1-0.1,0.2-0.1,0.3
	c0.6,1,0.7,3,0.7,4.1c-0.5-0.7-1.3-1.4-1.6-1.7c-0.1-0.1-0.2-0.1-0.3,0c-0.1,0.1-0.1,0.2,0,0.3c0.8,1.3,0.7,3.4,0.7,3.4
	c0,0.1,0,0.1,0.1,0.2c0,0,0.1,0.1,0.2,0.1l9.7-1c0.1,0,0.1,0,0.2-0.1C1019,97.8,1019,97.8,1019,97.7z"/>
<path class="st84" d="M1027.9,95.8c-0.9-1.6-0.6-5.7-0.6-5.7c0-0.1,0-0.2-0.1-0.2c-0.1,0-0.2,0-0.2,0.1c-0.5,0.6-1.1,2.5-1.4,3.7
	c-0.1-1,0-2.5,0.1-3.1c0-0.1,0-0.2-0.1-0.2c-0.1,0-0.2,0-0.2,0.1c-0.5,0.8-0.9,2.3-1.1,3.3c-0.5-2.2-0.3-6.1-0.3-6.2
	c0-0.1-0.1-0.2-0.2-0.2c-0.1,0-0.2,0-0.2,0.1c-0.8,1.5-1,3.9-1.1,5.6c-0.7-2-2-3.8-2.1-3.9c-0.1-0.1-0.2-0.1-0.3-0.1
	c-0.1,0.1-0.1,0.2-0.1,0.3c0.7,1.5,0.8,4,0.9,5.6c-0.7-2-2.2-4.1-2.3-4.3c-0.1-0.1-0.2-0.1-0.3-0.1c-0.1,0.1-0.1,0.2-0.1,0.3
	c0.6,1,0.7,3,0.7,4.1c-0.5-0.7-1.3-1.4-1.6-1.7c-0.1-0.1-0.2-0.1-0.3,0c-0.1,0.1-0.1,0.2,0,0.3c0.8,1.3,0.7,3.4,0.7,3.4
	c0,0.1,0,0.1,0.1,0.2c0,0,0.1,0.1,0.2,0.1l9.7-1c0.1,0,0.1,0,0.2-0.1C1027.9,95.9,1027.9,95.8,1027.9,95.8z"/>
<path class="st84" d="M1035.2,96.1c-0.7-1-0.4-3.7-0.4-3.7c0-0.1,0-0.1-0.1-0.1c-0.1,0-0.2,0-0.2,0c-0.4,0.4-0.9,1.7-1.2,2.4
	c0-0.7,0.1-1.6,0.1-2c0-0.1,0-0.1-0.1-0.1c-0.1,0-0.2,0-0.2,0.1c-0.4,0.5-0.8,1.5-1,2.2c-0.4-1.4-0.1-4-0.1-4c0-0.1,0-0.1-0.1-0.1
	c-0.1,0-0.2,0-0.2,0.1c-0.7,1-0.9,2.6-1,3.6c-0.6-1.3-1.6-2.5-1.6-2.5c0-0.1-0.1-0.1-0.2,0c-0.1,0-0.1,0.1-0.1,0.2
	c0.5,1,0.6,2.6,0.6,3.6c-0.6-1.3-1.7-2.7-1.8-2.7c-0.1-0.1-0.2-0.1-0.2,0c-0.1,0-0.1,0.1-0.1,0.2c0.5,0.7,0.5,1.9,0.5,2.6
	c-0.4-0.4-1-0.9-1.3-1.1c-0.1,0-0.2,0-0.2,0c-0.1,0-0.1,0.1,0,0.2c0.6,0.8,0.5,2.2,0.5,2.2c0,0,0,0.1,0.1,0.1c0,0,0.1,0,0.1,0
	l8.1-0.8c0.1,0,0.1,0,0.1-0.1C1035.2,96.1,1035.2,96.1,1035.2,96.1z"/>
<path class="st84" d="M1042.6,92.8c-0.7-1-0.4-3.7-0.4-3.7c0-0.1,0-0.1-0.1-0.1c-0.1,0-0.2,0-0.2,0c-0.4,0.4-0.9,1.7-1.2,2.4
	c0-0.7,0.1-1.6,0.1-2c0-0.1,0-0.1-0.1-0.1c-0.1,0-0.2,0-0.2,0.1c-0.4,0.5-0.8,1.5-1,2.2c-0.4-1.4-0.1-4-0.1-4c0-0.1,0-0.1-0.1-0.1
	c-0.1,0-0.2,0-0.2,0.1c-0.7,1-0.9,2.6-1,3.6c-0.6-1.3-1.6-2.5-1.6-2.5c0-0.1-0.1-0.1-0.2,0c-0.1,0-0.1,0.1-0.1,0.2
	c0.5,1,0.6,2.6,0.6,3.6c-0.6-1.3-1.7-2.7-1.8-2.7c-0.1-0.1-0.2-0.1-0.2,0c-0.1,0-0.1,0.1-0.1,0.2c0.5,0.7,0.5,1.9,0.5,2.6
	c-0.4-0.4-1-0.9-1.3-1.1c-0.1,0-0.2,0-0.2,0c-0.1,0-0.1,0.1,0,0.2c0.6,0.8,0.5,2.2,0.5,2.2c0,0,0,0.1,0.1,0.1c0,0,0.1,0,0.1,0
	l8.1-0.8c0.1,0,0.1,0,0.1-0.1C1042.6,92.9,1042.6,92.9,1042.6,92.8z"/>
<path class="st84" d="M1054.2,92.3c-1-1.9-0.7-7.1-0.7-7.1c0-0.1-0.1-0.2-0.2-0.3c-0.1,0-0.2,0-0.3,0.1c-0.6,0.8-1.3,3.2-1.6,4.6
	c-0.1-1.3,0-3.1,0.1-3.9c0-0.1-0.1-0.2-0.2-0.3c-0.1,0-0.2,0-0.3,0.1c-0.6,1-1,2.9-1.3,4.1c-0.6-2.7-0.4-7.7-0.4-7.7
	c0-0.1-0.1-0.2-0.2-0.3c-0.1,0-0.2,0-0.3,0.1c-1,1.9-1.2,4.9-1.3,6.9c-0.9-2.5-2.4-4.8-2.5-4.9c-0.1-0.1-0.2-0.1-0.3-0.1
	c-0.1,0.1-0.2,0.2-0.1,0.3c0.8,1.8,1,4.9,1.1,7c-0.9-2.4-2.6-5.2-2.7-5.3c-0.1-0.1-0.2-0.2-0.3-0.1c-0.1,0.1-0.2,0.2-0.1,0.3
	c0.7,1.3,0.8,3.7,0.8,5.1c-0.6-0.8-1.5-1.8-1.9-2.2c-0.1-0.1-0.2-0.1-0.3,0c-0.1,0.1-0.1,0.2-0.1,0.3c1,1.6,0.9,4.3,0.9,4.3
	c0,0.1,0,0.1,0.1,0.2c0.1,0.1,0.1,0.1,0.2,0.1l11.6-1.2c0.1,0,0.2-0.1,0.2-0.1C1054.2,92.4,1054.2,92.3,1054.2,92.3z"/>
<path class="st84" d="M1064.8,90.4c-1.4-2.5-0.9-8.9-0.9-9c0-0.1-0.1-0.3-0.2-0.3c-0.1-0.1-0.3,0-0.4,0.1c-0.8,1-1.7,4-2.2,5.9
	c-0.1-1.6,0.1-3.9,0.2-4.9c0-0.1-0.1-0.3-0.2-0.3c-0.1-0.1-0.3,0-0.4,0.1c-0.8,1.2-1.4,3.7-1.7,5.2c-0.8-3.4-0.5-9.7-0.5-9.8
	c0-0.2-0.1-0.3-0.2-0.3c-0.2,0-0.3,0-0.4,0.2c-1.3,2.4-1.7,6.2-1.7,8.8c-1.1-3.2-3.2-6-3.3-6.2c-0.1-0.1-0.3-0.2-0.4-0.1
	c-0.2,0.1-0.2,0.3-0.1,0.4c1,2.3,1.3,6.2,1.4,8.9c-1.2-3.1-3.5-6.5-3.6-6.7c-0.1-0.1-0.3-0.2-0.5-0.1c-0.2,0.1-0.2,0.3-0.1,0.4
	c1,1.6,1.1,4.7,1.1,6.4c-0.8-1-2-2.2-2.5-2.7c-0.1-0.1-0.3-0.1-0.4,0c-0.1,0.1-0.2,0.3-0.1,0.4c1.3,2,1.1,5.4,1.1,5.4
	c0,0.1,0,0.2,0.1,0.3c0.1,0.1,0.2,0.1,0.3,0.1l15.5-1.6c0.1,0,0.2-0.1,0.3-0.2C1064.9,90.6,1064.9,90.5,1064.8,90.4z"/>
<path class="st84" d="M818.5,117.2c0,0,7.7-5.1,7.4-7.4s-1.2-6.1-0.8-6.9c0.4-0.8,2-3.4,2-3.4l-2.7-3.6l0.1-2.2c0,0-1.4-1.3-1.8-2.1
	c-0.4-0.7,1.6-14.3,1.6-14.3L823.6,91c0,0,0.4,1.2,0.9,1.5s1.4-6.2,2.6-6.5c0,1.9-1.5,7.2-1.5,7.2s0.3,1.8,0.2,2.3
	c-0.1,0.6,1.8,1.3,1.8,1.3s0-1.1,0.5-2.2c0.5-1.1,3.1-8.5,3.1-8.5s-2.9,8.6-2.3,9.5c0.5,0.9,2.3-0.5,2.3-1.1s0.9-0.3,0.9-0.3
	s-1.8,1.9-2.4,2.2c-0.6,0.2,1.3,1.5,1.3,1.5s-3.8,4.4-3.8,5.8s0,1.4,0,1.4s1.9-3.3,6.4-5.8c2.1-2.1,4.1-4.4,4.2-5.3
	c-1.3,2.8-5.1,7.4-5.2,8c-0.1,0.6-3.7,1.6-5.1,4.7c0,0,5,7.1,4.2,7.8c-0.7,0.7-2.5,1.5-3.5,2.3L818.5,117.2z"/>
</svg>
