<?xml version="1.0" encoding="utf-8"?>
<!-- Generator: Adobe Illustrator 22.0.1, SVG Export Plug-In . SVG Version: 6.00 Build 0)  -->
<svg version="1.1" id="Calque_1" xmlns="http://www.w3.org/2000/svg" xmlns:xlink="http://www.w3.org/1999/xlink" x="0px" y="0px"
	 viewBox="0 0 826.2 274" style="enable-background:new 0 0 826.2 274;" xml:space="preserve">
<style type="text/css">
	.st0{fill:#FFFFFF;}
	.st1{fill:url(#SVGID_1_);stroke:#0C0D16;stroke-miterlimit:10;}
	.st2{opacity:0.7;fill:url(#SVGID_2_);}
	.st3{opacity:0.1;fill:#608291;}
	.st4{opacity:0.15;fill:url(#SVGID_3_);}
	.st5{opacity:0.8;fill:url(#SVGID_4_);}
	.st6{opacity:0.8;fill:#1E2635;}
	.st7{opacity:0.8;fill:url(#SVGID_5_);}
	.st8{fill:url(#SVGID_6_);}
	.st9{fill:#1E2635;}
	.st10{opacity:0.8;fill:url(#SVGID_7_);}
	.st11{fill:url(#SVGID_8_);}
	.st12{fill:url(#SVGID_9_);}
	.st13{fill:url(#SVGID_10_);}
	.st14{fill:url(#SVGID_11_);}
	.st15{fill:url(#SVGID_12_);stroke:#0C0D16;stroke-miterlimit:10;}
	.st16{opacity:0.7;fill:url(#SVGID_13_);}
	.st17{opacity:0.15;fill:url(#SVGID_14_);}
	.st18{opacity:0.8;fill:url(#SVGID_15_);}
	.st19{opacity:0.8;fill:url(#SVGID_16_);}
	.st20{fill:url(#SVGID_17_);}
	.st21{fill:url(#SVGID_18_);}
	.st22{opacity:0.8;fill:url(#SVGID_19_);}
	.st23{fill:url(#SVGID_20_);}
	.st24{fill:url(#SVGID_21_);}
	.st25{fill:url(#SVGID_22_);stroke:#0C0D16;stroke-miterlimit:10;}
	.st26{opacity:0.7;fill:url(#SVGID_23_);}
	.st27{opacity:0.15;fill:url(#SVGID_24_);}
	.st28{opacity:0.4;fill:url(#SVGID_25_);}
	.st29{opacity:0.8;fill:url(#SVGID_26_);}
	.st30{opacity:0.8;fill:url(#SVGID_27_);}
	.st31{fill:url(#SVGID_28_);}
	.st32{opacity:0.8;fill:url(#SVGID_29_);}
	.st33{opacity:0.6;fill:url(#SVGID_30_);}
	.st34{fill:url(#SVGID_31_);}
	.st35{opacity:0.8;fill:url(#SVGID_32_);}
	.st36{fill:url(#SVGID_33_);}
	.st37{opacity:0.8;fill:url(#SVGID_34_);}
	.st38{fill:url(#SVGID_35_);}
	.st39{opacity:0.8;fill:url(#SVGID_36_);}
	.st40{opacity:0.6;fill:url(#SVGID_37_);}
	.st41{fill:url(#SVGID_38_);}
	.st42{fill:url(#SVGID_39_);}
	.st43{fill:url(#SVGID_40_);}
	.st44{fill:#151325;}
	.st45{fill:#201B3D;}
	.st46{fill:url(#SVGID_41_);stroke:#0C0D16;stroke-miterlimit:10;}
	.st47{opacity:0.7;fill:url(#SVGID_42_);}
	.st48{opacity:0.15;fill:url(#SVGID_43_);}
	.st49{opacity:0.8;fill:url(#SVGID_44_);}
	.st50{opacity:0.8;fill:url(#SVGID_45_);}
	.st51{fill:url(#SVGID_46_);}
	.st52{fill:url(#SVGID_47_);}
	.st53{opacity:0.8;fill:url(#SVGID_48_);}
	.st54{fill:url(#SVGID_49_);}
	.st55{fill:url(#SVGID_50_);}
	.st56{fill:url(#SVGID_51_);}
	.st57{fill:url(#SVGID_52_);stroke:#0C0D16;stroke-miterlimit:10;}
	.st58{opacity:0.7;fill:url(#SVGID_53_);}
	.st59{opacity:0.15;fill:url(#SVGID_54_);}
	.st60{opacity:0.8;fill:url(#SVGID_55_);}
	.st61{opacity:0.8;fill:url(#SVGID_56_);}
	.st62{fill:url(#SVGID_57_);}
	.st63{opacity:0.8;fill:url(#SVGID_58_);}
	.st64{fill:url(#SVGID_59_);}
	.st65{fill:url(#SVGID_60_);}
	.st66{fill:url(#SVGID_61_);}
	.st67{fill:url(#SVGID_62_);}
	.st68{opacity:0.8;fill:url(#SVGID_63_);}
	.st69{opacity:0.8;fill:url(#SVGID_64_);}
	.st70{fill:url(#SVGID_65_);}
	.st71{fill:url(#SVGID_66_);}
	.st72{fill:url(#SVGID_67_);}
	.st73{fill:url(#SVGID_68_);}
	.st74{opacity:0.8;fill:url(#SVGID_69_);}
	.st75{opacity:0.8;fill:url(#SVGID_70_);}
	.st76{fill:url(#SVGID_71_);}
	.st77{fill:url(#SVGID_72_);}
	.st78{fill:url(#SVGID_73_);}
	.st79{opacity:0.8;fill:url(#SVGID_74_);}
	.st80{opacity:0.8;fill:url(#SVGID_75_);}
	.st81{fill:url(#SVGID_76_);}
	.st82{fill:url(#SVGID_77_);}
	.st83{fill:url(#SVGID_78_);}
	.st84{fill:#0C0D16;stroke:#0C0D16;stroke-miterlimit:10;}
	.st85{fill:#26284A;}
	.st86{fill:url(#SVGID_79_);}
	.st87{fill:url(#SVGID_80_);}
	.st88{fill:url(#SVGID_81_);}
	.st89{fill:url(#SVGID_82_);}
	.st90{fill:url(#SVGID_83_);}
	.st91{fill:url(#SVGID_84_);}
	.st92{fill:url(#SVGID_85_);}
	.st93{fill:url(#SVGID_86_);}
	.st94{fill:url(#SVGID_87_);}
	.st95{fill:url(#SVGID_88_);}
	.st96{fill:url(#SVGID_89_);}
	.st97{fill:url(#SVGID_90_);}
	.st98{fill:url(#SVGID_91_);}
	.st99{fill:url(#SVGID_92_);}
	.st100{fill:url(#SVGID_93_);}
	.st101{fill:#9BD5E4;}
	.st102{fill:#ABDCEB;}
	.st103{opacity:0.2;fill:#2B2C4D;}
	.st104{opacity:0.3;fill:url(#SVGID_94_);}
	.st105{opacity:0.3;fill:url(#SVGID_95_);}
	.st106{fill:#1E1212;}
	.st107{fill:#1E1212;stroke:#0C0D16;stroke-miterlimit:10;}
	.st108{opacity:0.3;fill:url(#SVGID_96_);stroke:#0C0D16;stroke-miterlimit:10;}
	.st109{opacity:5.000000e-02;fill:url(#SVGID_97_);stroke:#0C0D16;stroke-miterlimit:10;}
	.st110{fill:url(#SVGID_98_);stroke:#0C0D16;stroke-miterlimit:10;}
	.st111{fill:#3A556E;}
	.st112{opacity:0.3;fill:url(#SVGID_99_);}
	.st113{opacity:0.3;fill:url(#SVGID_100_);}
	.st114{fill:url(#SVGID_101_);}
	.st115{fill:url(#SVGID_102_);}
	.st116{fill:url(#SVGID_103_);}
	.st117{fill:url(#SVGID_104_);}
	.st118{fill:url(#SVGID_105_);}
	.st119{fill:url(#SVGID_106_);}
	.st120{fill:url(#SVGID_107_);}
	.st121{fill:url(#SVGID_108_);}
	.st122{fill:url(#SVGID_109_);}
	.st123{fill:url(#SVGID_110_);}
	.st124{fill:url(#SVGID_111_);}
	.st125{fill:url(#SVGID_112_);}
	.st126{fill:url(#SVGID_113_);}
	.st127{fill:url(#SVGID_114_);}
	.st128{fill:url(#SVGID_115_);}
	.st129{fill:url(#SVGID_116_);stroke:#0C0D16;stroke-miterlimit:10;}
	.st130{opacity:0.3;fill:url(#SVGID_117_);stroke:#0C0D16;stroke-miterlimit:10;}
	.st131{opacity:5.000000e-02;fill:url(#SVGID_118_);stroke:#0C0D16;stroke-miterlimit:10;}
	.st132{fill:url(#SVGID_119_);stroke:#0C0D16;stroke-miterlimit:10;}
	.st133{opacity:0.7;fill:url(#SVGID_120_);}
	.st134{opacity:0.15;fill:url(#SVGID_121_);}
	.st135{fill:url(#SVGID_122_);stroke:#0C0D16;stroke-miterlimit:10;}
	.st136{opacity:0.7;fill:url(#SVGID_123_);}
	.st137{opacity:0.15;fill:url(#SVGID_124_);}
	.st138{fill:url(#SVGID_125_);stroke:#0C0D16;stroke-miterlimit:10;}
	.st139{opacity:0.7;fill:url(#SVGID_126_);}
	.st140{opacity:0.15;fill:url(#SVGID_127_);}
</style>
<g>
	<path class="st84" d="M0.5,210c0,0,13.4,3.3,15.7,4.5c4.6,0,22.9,1.3,22.9,1.3s46.8-6.9,47.1-6.6c4.3,0,61.6,0,61.6,0l99.4,0.7
		l84.8,5.3l289-23.9l-3-8.8c0,0,16.8-4.5,25.9-7.1c2.1-0.6-3-6.1-2.6-14.6c0.3-5.9,3.1-14.3,2.6-20.7c-0.6-8.5,1.4-15.8-0.4-19.7
		c-3.9-8.4,5.6-29.7-10.5-34.1c-4.4-5.3-64.3-26.4-55-39.9l-10.4-34.1c0,0,164.3,14.5,184.9,3.1s73.2,234.7,73.2,234.7l0,23.3H0.5
		V210z"/>
	<path class="st85" d="M567.6,12.4c0,0,117-30,187.9,3.1C748.8,18.7,655.1,32,567.6,12.4z"/>
	<path class="st84" d="M646.5,176c-2.7-4.2-4.1-16.1-4.1-16.2c0-0.3-0.2-0.5-0.4-0.6c-0.2-0.1-0.4,0-0.5,0.2
		c-0.9,1.9-1.1,7.6-1.2,11c-0.7-2.9-1.2-7-1.3-8.9c0-0.3-0.2-0.5-0.4-0.6c-0.2-0.1-0.4,0.1-0.5,0.3c-0.7,2.3-0.8,6.9-0.8,9.7
		c-2.2-6.1-3.7-17.5-3.8-17.6c0-0.3-0.2-0.5-0.5-0.6c-0.2,0-0.4,0.1-0.5,0.4c-1.1,4.6-0.4,11.5,0.4,16.2c-2.6-5.6-6.4-10.4-6.6-10.7
		c-0.2-0.2-0.5-0.3-0.6-0.1c-0.2,0.2-0.2,0.5-0.1,0.8c2.2,4.1,3.9,11.1,4.8,15.9c-2.6-5.4-7-11.3-7.2-11.6c-0.2-0.3-0.5-0.3-0.7-0.1
		c-0.2,0.2-0.2,0.6,0,0.8c1.9,2.8,3,8.4,3.6,11.5c-1.4-1.7-3.5-3.7-4.4-4.5c-0.2-0.2-0.5-0.2-0.6,0c-0.2,0.2-0.1,0.5,0,0.8
		c2.4,3.4,3.3,9.6,3.3,9.6c0,0.2,0.1,0.3,0.2,0.4c0.1,0.1,0.3,0.1,0.4,0.1l21.2-5.4c0.2,0,0.3-0.2,0.3-0.4
		C646.6,176.4,646.6,176.2,646.5,176z"/>
	<path class="st84" d="M651.1,147.1c-2-1.1-5.1-5.4-5.2-5.5c-0.1-0.1-0.2-0.1-0.3-0.1c-0.1,0-0.2,0.1-0.2,0.2c0.1,0.9,1.2,3.2,2,4.6
		c-0.9-1-2-2.5-2.5-3.2c-0.1-0.1-0.2-0.2-0.3-0.1c-0.1,0-0.2,0.1-0.1,0.2c0.2,1.1,1.2,2.9,1.8,4c-2.2-1.9-5.3-6.1-5.3-6.1
		c-0.1-0.1-0.2-0.2-0.3-0.1c-0.1,0-0.1,0.1-0.1,0.2c0.6,2,2.4,4.6,3.7,6.3c-2.2-1.6-4.8-2.7-4.9-2.8c-0.1-0.1-0.2,0-0.3,0.1
		c0,0.1,0,0.2,0.1,0.3c1.8,1.1,4,3.5,5.4,5.2c-2.2-1.5-5.2-2.9-5.4-3c-0.1-0.1-0.3,0-0.3,0.1c0,0.1,0,0.3,0.2,0.3
		c1.3,0.7,3,2.6,3.9,3.7c-0.9-0.4-2.2-0.7-2.7-0.8c-0.1,0-0.2,0-0.2,0.2c0,0.1,0.1,0.2,0.2,0.3c1.7,0.8,3.4,3,3.4,3.1
		c0,0.1,0.1,0.1,0.2,0.1c0.1,0,0.1,0,0.2,0l7.1-6.8c0.1,0,0.1-0.1,0-0.2C651.2,147.2,651.2,147.2,651.1,147.1z"/>
	<path class="st84" d="M648.3,157.7c-2-1.1-5.1-5.4-5.2-5.5c-0.1-0.1-0.2-0.1-0.3-0.1c-0.1,0-0.2,0.1-0.2,0.2c0.1,0.9,1.2,3.2,2,4.6
		c-0.9-1-2-2.5-2.5-3.2c-0.1-0.1-0.2-0.2-0.3-0.1c-0.1,0-0.2,0.1-0.1,0.2c0.2,1.1,1.2,2.9,1.8,4c-2.2-1.9-5.3-6.1-5.3-6.1
		c-0.1-0.1-0.2-0.2-0.3-0.1c-0.1,0-0.1,0.1-0.1,0.2c0.6,2,2.4,4.6,3.7,6.3c-2.2-1.6-4.8-2.7-4.9-2.8c-0.1-0.1-0.2,0-0.3,0.1
		c0,0.1,0,0.2,0.1,0.3c1.8,1.1,4,3.5,5.4,5.2c-2.2-1.5-5.2-2.9-5.4-3c-0.1-0.1-0.3,0-0.3,0.1c0,0.1,0,0.3,0.2,0.3
		c1.3,0.7,3,2.6,3.9,3.7c-0.9-0.4-2.2-0.7-2.7-0.8c-0.1,0-0.2,0-0.2,0.2c0,0.1,0.1,0.2,0.2,0.3c1.7,0.8,3.4,3,3.4,3.1
		c0,0.1,0.1,0.1,0.2,0.1c0.1,0,0.1,0,0.2,0l7.1-6.8c0.1,0,0.1-0.1,0-0.2C648.4,157.8,648.4,157.8,648.3,157.7z"/>
	<path class="st84" d="M647.5,164.4c-2-1.1-5.1-5.4-5.2-5.5c-0.1-0.1-0.2-0.1-0.3-0.1c-0.1,0-0.2,0.1-0.2,0.2c0.1,0.9,1.2,3.2,2,4.6
		c-0.9-1-2-2.5-2.5-3.2c-0.1-0.1-0.2-0.2-0.3-0.1c-0.1,0-0.2,0.1-0.1,0.2c0.2,1.1,1.2,2.9,1.8,4c-2.2-1.9-5.3-6.1-5.3-6.1
		c-0.1-0.1-0.2-0.2-0.3-0.1c-0.1,0-0.1,0.1-0.1,0.2c0.6,2,2.4,4.6,3.7,6.3c-2.2-1.6-4.8-2.7-4.9-2.8c-0.1-0.1-0.2,0-0.3,0.1
		c0,0.1,0,0.2,0.1,0.3c1.8,1.1,4,3.5,5.4,5.2c-2.2-1.5-5.2-2.9-5.4-3c-0.1-0.1-0.3,0-0.3,0.1c0,0.1,0,0.3,0.2,0.3
		c1.3,0.7,3,2.6,3.9,3.7c-0.9-0.4-2.2-0.7-2.7-0.8c-0.1,0-0.2,0-0.2,0.2c0,0.1,0.1,0.2,0.2,0.3c1.7,0.8,3.4,3,3.4,3.1
		c0,0.1,0.1,0.1,0.2,0.1c0.1,0,0.1,0,0.2,0l7.1-6.8c0.1,0,0.1-0.1,0-0.2C647.6,164.6,647.6,164.5,647.5,164.4z"/>
</g>
</svg>
