<?xml version="1.0" encoding="utf-8"?>
<!-- Generator: Adobe Illustrator 22.0.1, SVG Export Plug-In . SVG Version: 6.00 Build 0)  -->
<svg version="1.1" id="Calque_1" xmlns="http://www.w3.org/2000/svg" xmlns:xlink="http://www.w3.org/1999/xlink" x="0px" y="0px"
	 viewBox="0 0 2800.5 100.1" style="enable-background:new 0 0 2800.5 100.1;" xml:space="preserve">
<style type="text/css">
	.st0{fill:#FFFFFF;}
	.st1{fill:url(#SVGID_1_);stroke:#0C0D16;stroke-miterlimit:10;}
	.st2{opacity:0.7;fill:url(#SVGID_2_);}
	.st3{opacity:0.1;fill:#608291;}
	.st4{opacity:0.15;fill:url(#SVGID_3_);}
	.st5{opacity:0.8;fill:url(#SVGID_4_);}
	.st6{opacity:0.8;fill:#1E2635;}
	.st7{opacity:0.8;fill:url(#SVGID_5_);}
	.st8{fill:url(#SVGID_6_);}
	.st9{fill:#1E2635;}
	.st10{opacity:0.8;fill:url(#SVGID_7_);}
	.st11{fill:url(#SVGID_8_);}
	.st12{fill:url(#SVGID_9_);}
	.st13{fill:url(#SVGID_10_);}
	.st14{fill:url(#SVGID_11_);}
	.st15{fill:url(#SVGID_12_);stroke:#0C0D16;stroke-miterlimit:10;}
	.st16{opacity:0.7;fill:url(#SVGID_13_);}
	.st17{opacity:0.15;fill:url(#SVGID_14_);}
	.st18{opacity:0.8;fill:url(#SVGID_15_);}
	.st19{opacity:0.8;fill:url(#SVGID_16_);}
	.st20{fill:url(#SVGID_17_);}
	.st21{fill:url(#SVGID_18_);}
	.st22{opacity:0.8;fill:url(#SVGID_19_);}
	.st23{fill:url(#SVGID_20_);}
	.st24{fill:url(#SVGID_21_);}
	.st25{fill:url(#SVGID_22_);stroke:#0C0D16;stroke-miterlimit:10;}
	.st26{opacity:0.7;fill:url(#SVGID_23_);}
	.st27{opacity:0.15;fill:url(#SVGID_24_);}
	.st28{opacity:0.4;fill:url(#SVGID_25_);}
	.st29{opacity:0.8;fill:url(#SVGID_26_);}
	.st30{opacity:0.8;fill:url(#SVGID_27_);}
	.st31{fill:url(#SVGID_28_);}
	.st32{opacity:0.8;fill:url(#SVGID_29_);}
	.st33{opacity:0.6;fill:url(#SVGID_30_);}
	.st34{fill:url(#SVGID_31_);}
	.st35{opacity:0.8;fill:url(#SVGID_32_);}
	.st36{fill:url(#SVGID_33_);}
	.st37{opacity:0.8;fill:url(#SVGID_34_);}
	.st38{fill:url(#SVGID_35_);}
	.st39{opacity:0.8;fill:url(#SVGID_36_);}
	.st40{opacity:0.6;fill:url(#SVGID_37_);}
	.st41{fill:url(#SVGID_38_);}
	.st42{fill:url(#SVGID_39_);}
	.st43{fill:url(#SVGID_40_);}
	.st44{fill:#151325;}
	.st45{fill:#201B3D;}
	.st46{fill:url(#SVGID_41_);stroke:#0C0D16;stroke-miterlimit:10;}
	.st47{opacity:0.7;fill:url(#SVGID_42_);}
	.st48{opacity:0.15;fill:url(#SVGID_43_);}
	.st49{opacity:0.8;fill:url(#SVGID_44_);}
	.st50{opacity:0.8;fill:url(#SVGID_45_);}
	.st51{fill:url(#SVGID_46_);}
	.st52{fill:url(#SVGID_47_);}
	.st53{opacity:0.8;fill:url(#SVGID_48_);}
	.st54{fill:url(#SVGID_49_);}
	.st55{fill:url(#SVGID_50_);}
	.st56{fill:url(#SVGID_51_);}
	.st57{fill:url(#SVGID_52_);stroke:#0C0D16;stroke-miterlimit:10;}
	.st58{opacity:0.7;fill:url(#SVGID_53_);}
	.st59{opacity:0.15;fill:url(#SVGID_54_);}
	.st60{opacity:0.8;fill:url(#SVGID_55_);}
	.st61{opacity:0.8;fill:url(#SVGID_56_);}
	.st62{fill:url(#SVGID_57_);}
	.st63{opacity:0.8;fill:url(#SVGID_58_);}
	.st64{fill:url(#SVGID_59_);}
	.st65{fill:url(#SVGID_60_);}
	.st66{fill:url(#SVGID_61_);}
	.st67{fill:url(#SVGID_62_);}
	.st68{opacity:0.8;fill:url(#SVGID_63_);}
	.st69{opacity:0.8;fill:url(#SVGID_64_);}
	.st70{fill:url(#SVGID_65_);}
	.st71{fill:url(#SVGID_66_);}
	.st72{fill:url(#SVGID_67_);}
	.st73{fill:url(#SVGID_68_);}
	.st74{opacity:0.8;fill:url(#SVGID_69_);}
	.st75{opacity:0.8;fill:url(#SVGID_70_);}
	.st76{fill:url(#SVGID_71_);}
	.st77{fill:url(#SVGID_72_);}
	.st78{fill:url(#SVGID_73_);}
	.st79{opacity:0.8;fill:url(#SVGID_74_);}
	.st80{opacity:0.8;fill:url(#SVGID_75_);}
	.st81{fill:url(#SVGID_76_);}
	.st82{fill:url(#SVGID_77_);}
	.st83{fill:url(#SVGID_78_);}
	.st84{fill:#0C0D16;stroke:#0C0D16;stroke-miterlimit:10;}
	.st85{fill:#26284A;}
	.st86{fill:url(#SVGID_79_);}
	.st87{fill:url(#SVGID_80_);}
	.st88{fill:url(#SVGID_81_);}
	.st89{fill:url(#SVGID_82_);}
	.st90{fill:url(#SVGID_83_);}
	.st91{fill:url(#SVGID_84_);}
	.st92{fill:url(#SVGID_85_);}
	.st93{fill:url(#SVGID_86_);}
	.st94{fill:url(#SVGID_87_);}
	.st95{fill:url(#SVGID_88_);}
	.st96{fill:url(#SVGID_89_);}
	.st97{fill:url(#SVGID_90_);}
	.st98{fill:url(#SVGID_91_);}
	.st99{fill:url(#SVGID_92_);}
	.st100{fill:url(#SVGID_93_);}
	.st101{fill:#9BD5E4;}
	.st102{fill:#ABDCEB;}
	.st103{opacity:0.2;fill:#2B2C4D;}
	.st104{opacity:0.3;fill:url(#SVGID_94_);}
	.st105{opacity:0.3;fill:url(#SVGID_95_);}
	.st106{fill:#1E1212;}
	.st107{fill:#1E1212;stroke:#0C0D16;stroke-miterlimit:10;}
	.st108{opacity:0.3;fill:url(#SVGID_96_);stroke:#0C0D16;stroke-miterlimit:10;}
	.st109{opacity:5.000000e-02;fill:url(#SVGID_97_);stroke:#0C0D16;stroke-miterlimit:10;}
	.st110{fill:url(#SVGID_98_);stroke:#0C0D16;stroke-miterlimit:10;}
	.st111{fill:#3A556E;}
	.st112{opacity:0.3;fill:url(#SVGID_99_);}
	.st113{opacity:0.3;fill:url(#SVGID_100_);}
	.st114{fill:url(#SVGID_101_);}
	.st115{fill:url(#SVGID_102_);}
	.st116{fill:url(#SVGID_103_);}
	.st117{fill:url(#SVGID_104_);}
	.st118{fill:url(#SVGID_105_);}
	.st119{fill:url(#SVGID_106_);}
	.st120{fill:url(#SVGID_107_);}
	.st121{fill:url(#SVGID_108_);}
	.st122{fill:url(#SVGID_109_);}
	.st123{fill:url(#SVGID_110_);}
	.st124{fill:url(#SVGID_111_);}
	.st125{fill:url(#SVGID_112_);}
	.st126{fill:url(#SVGID_113_);}
	.st127{fill:url(#SVGID_114_);}
	.st128{fill:url(#SVGID_115_);}
	.st129{fill:url(#SVGID_116_);stroke:#0C0D16;stroke-miterlimit:10;}
	.st130{opacity:0.3;fill:url(#SVGID_117_);stroke:#0C0D16;stroke-miterlimit:10;}
	.st131{opacity:5.000000e-02;fill:url(#SVGID_118_);stroke:#0C0D16;stroke-miterlimit:10;}
	.st132{fill:url(#SVGID_119_);stroke:#0C0D16;stroke-miterlimit:10;}
	.st133{opacity:0.7;fill:url(#SVGID_120_);}
	.st134{opacity:0.15;fill:url(#SVGID_121_);}
	.st135{fill:url(#SVGID_122_);stroke:#0C0D16;stroke-miterlimit:10;}
	.st136{opacity:0.7;fill:url(#SVGID_123_);}
	.st137{opacity:0.15;fill:url(#SVGID_124_);}
	.st138{fill:url(#SVGID_125_);stroke:#0C0D16;stroke-miterlimit:10;}
	.st139{opacity:0.7;fill:url(#SVGID_126_);}
	.st140{opacity:0.15;fill:url(#SVGID_127_);}
</style>
<g>
	<path class="st101" d="M2800.5,100.1H5.6c-3.1,0-5.6-1.4-5.6-3V3c0-1.7,2.5-3,5.6-3h2789.2c3.1,0,5.6,1.4,5.6,3V100.1z"/>
	<path class="st102" d="M2158.8,60.3H495.4c-4.4,0-7.9-3.6-7.9-7.9v0c0-4.4,3.6-7.9,7.9-7.9h1663.4c4.4,0,7.9,3.6,7.9,7.9v0
		C2166.8,56.7,2163.2,60.3,2158.8,60.3z"/>
	<path class="st102" d="M2592.6,43.3H929.1c-4.4,0-7.9-3.6-7.9-7.9v0c0-4.4,3.6-7.9,7.9-7.9h1663.4c4.4,0,7.9,3.6,7.9,7.9v0
		C2600.5,39.8,2596.9,43.3,2592.6,43.3z"/>
	<path class="st102" d="M2381.8,27.5H718.4c-4.4,0-7.9-3.6-7.9-7.9v0c0-4.4,3.6-7.9,7.9-7.9h1663.4c4.4,0,7.9,3.6,7.9,7.9v0
		C2389.8,23.9,2386.2,27.5,2381.8,27.5z"/>
	<path class="st102" d="M539.2,28.8H82c-1.2,0-2.2-1-2.2-2.2v0c0-1.2,1-2.2,2.2-2.2h457.2c1.2,0,2.2,1,2.2,2.2v0
		C541.4,27.8,540.4,28.8,539.2,28.8z"/>
	<path class="st102" d="M659.6,24.8l-457.2,0c-1.2,0-2.2-1-2.2-2.2v0c0-1.2,1-2.2,2.2-2.2h457.2c1.2,0,2.2,1,2.2,2.2v0
		C661.8,23.8,660.8,24.8,659.6,24.8z"/>
	<path class="st102" d="M601.7,20.4H144.5c-1.2,0-2.2-1-2.2-2.2v0c0-1.2,1-2.2,2.2-2.2h457.2c1.2,0,2.2,1,2.2,2.2v0
		C603.9,19.4,602.9,20.4,601.7,20.4z"/>
	<path class="st102" d="M670.2,84.3H213c-1.2,0-2.2-1-2.2-2.2v0c0-1.2,1-2.2,2.2-2.2h457.2c1.2,0,2.2,1,2.2,2.2v0
		C672.4,83.3,671.4,84.3,670.2,84.3z"/>
	<path class="st102" d="M790.6,80.3H333.4c-1.2,0-2.2-1-2.2-2.2v0c0-1.2,1-2.2,2.2-2.2h457.2c1.2,0,2.2,1,2.2,2.2v0
		C792.8,79.3,791.8,80.3,790.6,80.3z"/>
	<path class="st102" d="M732.7,75.9l-457.2,0c-1.2,0-2.2-1-2.2-2.2l0,0c0-1.2,1-2.2,2.2-2.2h457.2c1.2,0,2.2,1,2.2,2.2l0,0
		C734.9,74.9,733.9,75.9,732.7,75.9z"/>
</g>
</svg>
